<?xml version="1.0" encoding="UTF-8"?>
<!DOCTYPE svg PUBLIC "-//W3C//DTD SVG 1.1//EN" "http://www.w3.org/Graphics/SVG/1.1/DTD/svg11.dtd">
<svg xmlns="http://www.w3.org/2000/svg" version="1.1" width="207px" height="243px" style="shape-rendering:geometricPrecision; text-rendering:geometricPrecision; image-rendering:optimizeQuality; fill-rule:evenodd; clip-rule:evenodd" xmlns:xlink="http://www.w3.org/1999/xlink">
<g><path style="opacity:1" fill="#fefefe" d="M -0.5,-0.5 C 68.5,-0.5 137.5,-0.5 206.5,-0.5C 206.5,80.5 206.5,161.5 206.5,242.5C 137.5,242.5 68.5,242.5 -0.5,242.5C -0.5,161.5 -0.5,80.5 -0.5,-0.5 Z"/></g>
<g><path style="opacity:1" fill="#aea69d" d="M 88.5,23.5 C 85.5181,22.0393 82.5181,21.706 79.5,22.5C 79.6107,21.8826 79.944,21.3826 80.5,21C 82.6565,20.9219 84.6565,20.7552 86.5,20.5C 87.4252,21.3569 88.0919,22.3569 88.5,23.5 Z"/></g>
<g><path style="opacity:1" fill="#5d4f48" d="M 127.5,23.5 C 121.428,22.8413 115.428,23.508 109.5,25.5C 109.5,24.5 109.5,23.5 109.5,22.5C 111.135,21.1854 112.801,21.1854 114.5,22.5C 115.333,21.5 116.167,20.5 117,19.5C 117.333,20.1667 117.667,20.8333 118,21.5C 119.117,21.3349 120.284,21.0016 121.5,20.5C 124.047,20.771 126.047,21.771 127.5,23.5 Z"/></g>
<g><path style="opacity:1" fill="#3f312b" d="M 127.5,23.5 C 127.833,23.5 128.167,23.5 128.5,23.5C 130.246,27.2039 131.913,30.5372 133.5,33.5C 132.398,34.1757 131.398,34.8423 130.5,35.5C 128.158,35.2252 128.158,34.3919 130.5,33C 127.46,28.79 123.46,25.9567 118.5,24.5C 116.929,25.3094 115.262,25.6427 113.5,25.5C 113.343,26.8734 113.51,28.2068 114,29.5C 116.064,31.3011 117.898,33.3011 119.5,35.5C 116.973,34.1247 114.64,32.458 112.5,30.5C 111.713,28.8958 110.38,28.2291 108.5,28.5C 108.5,28.1667 108.5,27.8333 108.5,27.5C 109.338,27.1583 109.672,26.4916 109.5,25.5C 115.428,23.508 121.428,22.8413 127.5,23.5 Z"/></g>
<g><path style="opacity:1" fill="#807670" d="M 108.5,27.5 C 108.5,27.8333 108.5,28.1667 108.5,28.5C 104.519,29.0209 100.519,29.3542 96.5,29.5C 95.791,28.596 94.791,28.2627 93.5,28.5C 93.5,26.8333 93.5,25.1667 93.5,23.5C 91.602,24.0965 89.9354,24.0965 88.5,23.5C 89.2679,22.7375 89.7679,21.7375 90,20.5C 93.7365,21.2949 95.5698,23.6282 95.5,27.5C 99.9403,27.0566 104.274,27.0566 108.5,27.5 Z"/></g>
<g><path style="opacity:1" fill="#2a1e1a" d="M 75.5,40.5 C 74.5291,39.0379 74.8624,37.7046 76.5,36.5C 75.8333,36.5 75.1667,36.5 74.5,36.5C 74.1667,36.5 73.8333,36.5 73.5,36.5C 73.7135,34.8561 73.3802,33.3561 72.5,32C 74.9647,31.3678 76.6314,29.8678 77.5,27.5C 80.0318,26.8811 82.3651,25.8811 84.5,24.5C 86.9076,25.2162 88.9076,26.5495 90.5,28.5C 88.8513,29.6477 87.3513,30.981 86,32.5C 83.6569,36.523 81.3236,40.523 79,44.5C 77.9681,42.9733 76.8014,41.64 75.5,40.5 Z"/></g>
<g><path style="opacity:1" fill="#50443e" d="M 88.5,23.5 C 89.9354,24.0965 91.602,24.0965 93.5,23.5C 93.5,25.1667 93.5,26.8333 93.5,28.5C 94.791,28.2627 95.791,28.596 96.5,29.5C 96.2627,30.791 96.596,31.791 97.5,32.5C 97.5514,34.5695 96.8847,36.4029 95.5,38C 95.9891,39.1385 96.3225,40.3052 96.5,41.5C 94.3502,41.9052 92.3502,42.4052 90.5,43C 91.1498,40.5438 92.1498,38.2105 93.5,36C 93.3333,34.5 92.5,33.6667 91,33.5C 86.5991,37.9772 82.4324,42.6438 78.5,47.5C 76.6294,46.1462 74.9627,44.4795 73.5,42.5C 73.8555,41.4777 74.5222,40.811 75.5,40.5C 76.8014,41.64 77.9681,42.9733 79,44.5C 81.3236,40.523 83.6569,36.523 86,32.5C 87.3513,30.981 88.8513,29.6477 90.5,28.5C 88.9076,26.5495 86.9076,25.2162 84.5,24.5C 82.3651,25.8811 80.0318,26.8811 77.5,27.5C 76.6314,29.8678 74.9647,31.3678 72.5,32C 73.3802,33.3561 73.7135,34.8561 73.5,36.5C 71.6064,37.0476 69.9397,38.0476 68.5,39.5C 67.1667,35.5 67.1667,31.5 68.5,27.5C 72.59,26.6007 76.2567,24.934 79.5,22.5C 82.5181,21.706 85.5181,22.0393 88.5,23.5 Z"/></g>
<g><path style="opacity:1" fill="#665755" d="M 76.5,36.5 C 75.4908,35.0609 75.8241,33.7276 77.5,32.5C 78.8333,31.1667 80.1667,31.1667 81.5,32.5C 80.3954,34.6114 78.7288,35.9447 76.5,36.5 Z"/></g>
<g><path style="opacity:1" fill="#978f8b" d="M 108.5,28.5 C 110.38,28.2291 111.713,28.8958 112.5,30.5C 112.005,32.4817 111.505,34.4817 111,36.5C 108.68,37.6203 106.513,39.6203 104.5,42.5C 105.482,45.0956 106.149,47.7623 106.5,50.5C 104.444,49.4071 103.444,47.5738 103.5,45C 103.667,43.5 103.833,42 104,40.5C 106.112,37.3393 107.946,34.006 109.5,30.5C 109.137,29.8165 108.804,29.1499 108.5,28.5 Z"/></g>
<g><path style="opacity:1" fill="#1f1716" d="M 130.5,35.5 C 132.074,36.9842 133.407,38.6508 134.5,40.5C 134.5,40.8333 134.5,41.1667 134.5,41.5C 134.5,42.1667 134.5,42.8333 134.5,43.5C 128.185,38.9799 127.185,39.8132 131.5,46C 131.566,48.4662 131.566,50.9662 131.5,53.5C 128.768,50.3839 126.268,47.0506 124,43.5C 123.027,41.6079 122.36,39.6079 122,37.5C 121.329,36.7476 120.496,36.4142 119.5,36.5C 119.5,36.1667 119.5,35.8333 119.5,35.5C 117.898,33.3011 116.064,31.3011 114,29.5C 113.51,28.2068 113.343,26.8734 113.5,25.5C 115.262,25.6427 116.929,25.3094 118.5,24.5C 123.46,25.9567 127.46,28.79 130.5,33C 128.158,34.3919 128.158,35.2252 130.5,35.5 Z"/></g>
<g><path style="opacity:1" fill="#897f7d" d="M 97.5,32.5 C 98.4816,35.9619 98.815,39.6286 98.5,43.5C 98.1667,43.5 97.8333,43.5 97.5,43.5C 97.6716,42.5084 97.3382,41.8417 96.5,41.5C 96.3225,40.3052 95.9891,39.1385 95.5,38C 96.8847,36.4029 97.5514,34.5695 97.5,32.5 Z"/></g>
<g><path style="opacity:1" fill="#62564e" d="M 128.5,23.5 C 131.138,24.4916 133.805,25.4916 136.5,26.5C 137.833,30.8333 137.833,35.1667 136.5,39.5C 135.056,38.019 134.389,38.3523 134.5,40.5C 133.407,38.6508 132.074,36.9842 130.5,35.5C 131.398,34.8423 132.398,34.1757 133.5,33.5C 131.913,30.5372 130.246,27.2039 128.5,23.5 Z"/></g>
<g><path style="opacity:1" fill="#695d54" d="M 74.5,36.5 C 75.1667,36.5 75.8333,36.5 76.5,36.5C 74.8624,37.7046 74.5291,39.0379 75.5,40.5C 74.5222,40.811 73.8555,41.4777 73.5,42.5C 74.9627,44.4795 76.6294,46.1462 78.5,47.5C 77.3625,50.5078 75.3625,52.5078 72.5,53.5C 72.3713,55.2161 72.038,56.8828 71.5,58.5C 70.6847,53.8438 70.3514,49.1772 70.5,44.5C 71.2679,41.6307 72.6012,38.9641 74.5,36.5 Z"/></g>
<g><path style="opacity:1" fill="#2a1f1c" d="M 96.5,41.5 C 97.3382,41.8417 97.6716,42.5084 97.5,43.5C 96.8074,46.3436 95.6408,48.3436 94,49.5C 93.6667,48.5 93.3333,47.5 93,46.5C 92,47.8333 91,47.8333 90,46.5C 89.3333,48.1667 89.3333,49.8333 90,51.5C 91.7198,52.3841 92.8865,53.7175 93.5,55.5C 93.1788,57.0481 92.1788,57.7148 90.5,57.5C 86.804,56.085 82.9707,55.085 79,54.5C 78.6667,55.5 78.3333,56.5 78,57.5C 79.3537,60.6951 79.8537,64.0285 79.5,67.5C 80.6507,68.731 81.8173,68.731 83,67.5C 84.0438,65.2852 84.7105,62.9519 85,60.5C 85.5855,62.1293 86.4188,63.6293 87.5,65C 86.6931,68.8162 86.0265,72.6496 85.5,76.5C 85.1667,76.5 84.8333,76.5 84.5,76.5C 81.7282,75.2376 79.0615,73.7376 76.5,72C 76.9574,71.586 77.2907,71.086 77.5,70.5C 74.8825,68.8004 74.2158,66.6337 75.5,64C 74.1155,62.3506 72.4488,61.1839 70.5,60.5C 70.8333,59.8333 71.1667,59.1667 71.5,58.5C 72.038,56.8828 72.3713,55.2161 72.5,53.5C 75.3625,52.5078 77.3625,50.5078 78.5,47.5C 82.4324,42.6438 86.5991,37.9772 91,33.5C 92.5,33.6667 93.3333,34.5 93.5,36C 92.1498,38.2105 91.1498,40.5438 90.5,43C 92.3502,42.4052 94.3502,41.9052 96.5,41.5 Z"/></g>
<g><path style="opacity:1" fill="#50433f" d="M 97.5,43.5 C 97.8333,43.5 98.1667,43.5 98.5,43.5C 98.0074,45.8056 97.6741,48.139 97.5,50.5C 95.9263,51.9842 94.593,53.6508 93.5,55.5C 92.8865,53.7175 91.7198,52.3841 90,51.5C 89.3333,49.8333 89.3333,48.1667 90,46.5C 91,47.8333 92,47.8333 93,46.5C 93.3333,47.5 93.6667,48.5 94,49.5C 95.6408,48.3436 96.8074,46.3436 97.5,43.5 Z"/></g>
<g><path style="opacity:1" fill="#efefeb" d="M 139.5,89.5 C 137.396,86.7326 135.729,83.7326 134.5,80.5C 135.404,79.791 135.737,78.791 135.5,77.5C 137.183,73.3694 137.85,69.0361 137.5,64.5C 136.624,57.7964 135.957,51.2964 135.5,45C 136.167,44.6667 136.833,44.3333 137.5,44C 136.309,43.3021 135.309,42.4687 134.5,41.5C 134.5,41.1667 134.5,40.8333 134.5,40.5C 134.389,38.3523 135.056,38.019 136.5,39.5C 137.833,35.1667 137.833,30.8333 136.5,26.5C 133.805,25.4916 131.138,24.4916 128.5,23.5C 128.167,23.5 127.833,23.5 127.5,23.5C 126.047,21.771 124.047,20.771 121.5,20.5C 120.284,21.0016 119.117,21.3349 118,21.5C 117.667,20.8333 117.333,20.1667 117,19.5C 116.167,20.5 115.333,21.5 114.5,22.5C 112.801,21.1854 111.135,21.1854 109.5,22.5C 109.572,20.6891 110.405,19.3557 112,18.5C 114.091,18.4206 116.258,18.0872 118.5,17.5C 119.833,18.1667 121.167,18.8333 122.5,19.5C 123.768,18.5721 125.101,18.4054 126.5,19C 128.547,20.0726 130.547,21.2393 132.5,22.5C 133.167,21.8333 133.833,21.1667 134.5,20.5C 135.472,22.6365 137.139,23.8032 139.5,24C 139.167,24.3333 138.833,24.6667 138.5,25C 144.826,26.3767 144.826,28.0434 138.5,30C 141.965,30.9336 142.298,32.4336 139.5,34.5C 140.428,35.7678 140.595,37.1011 140,38.5C 139.346,37.3044 138.846,37.3044 138.5,38.5C 139.025,39.1924 139.692,39.6924 140.5,40C 140.167,40.3333 139.833,40.6667 139.5,41C 142.294,43.5487 143.628,46.7154 143.5,50.5C 142.448,50.3505 141.448,50.5172 140.5,51C 144.502,55.1531 144.168,59.1531 139.5,63C 141.5,63.6667 142.833,65 143.5,67C 143.08,72.535 142.914,78.7016 143,85.5C 142,85.8333 141,86.1667 140,86.5C 139.517,87.448 139.351,88.448 139.5,89.5 Z"/></g>
<g><path style="opacity:1" fill="#41322e" d="M 119.5,36.5 C 120.496,36.4142 121.329,36.7476 122,37.5C 122.36,39.6079 123.027,41.6079 124,43.5C 126.268,47.0506 128.768,50.3839 131.5,53.5C 131.566,50.9662 131.566,48.4662 131.5,46C 127.185,39.8132 128.185,38.9799 134.5,43.5C 133.609,44.2613 132.942,45.2613 132.5,46.5C 133.134,51.0098 133.801,55.5098 134.5,60C 130.903,60.5338 127.736,59.0338 125,55.5C 124.333,57.1667 124.333,58.8333 125,60.5C 126.903,62.441 127.736,64.7743 127.5,67.5C 129.929,67.8844 132.263,68.551 134.5,69.5C 134.343,68.1266 134.51,66.7932 135,65.5C 135.383,66.056 135.883,66.3893 136.5,66.5C 136.745,69.8649 136.078,73.0316 134.5,76C 134.57,76.7648 134.903,77.2648 135.5,77.5C 135.737,78.791 135.404,79.791 134.5,80.5C 132.961,82.9818 131.461,82.9818 130,80.5C 129.722,81.4158 129.222,82.0825 128.5,82.5C 128.642,78.4547 128.642,74.6214 128.5,71C 127.668,70.3123 127.002,70.479 126.5,71.5C 125.519,74.4424 123.852,76.7758 121.5,78.5C 121.631,77.6236 121.298,76.9569 120.5,76.5C 118.929,77.3094 117.262,77.6427 115.5,77.5C 114.629,74.9382 114.629,72.2716 115.5,69.5C 115.81,68.2617 116.31,68.2617 117,69.5C 117.346,66.4245 118.012,63.4245 119,60.5C 121.212,57.9976 122.045,54.9976 121.5,51.5C 120.448,51.6495 119.448,51.4828 118.5,51C 119.777,48.5341 119.777,46.0341 118.5,43.5C 116.787,42.1218 115.453,40.4552 114.5,38.5C 116.936,37.6681 119.103,38.3347 121,40.5C 121.3,38.9343 120.8,37.601 119.5,36.5 Z"/></g>
<g><path style="opacity:1" fill="#372c2b" d="M 90.5,57.5 C 89.1491,59.423 88.4824,61.5897 88.5,64C 89.7371,67.8766 89.7371,71.3766 88.5,74.5C 88.3404,76.153 87.6737,77.4863 86.5,78.5C 86.6716,77.5084 86.3382,76.8417 85.5,76.5C 86.0265,72.6496 86.6931,68.8162 87.5,65C 86.4188,63.6293 85.5855,62.1293 85,60.5C 84.7105,62.9519 84.0438,65.2852 83,67.5C 81.8173,68.731 80.6507,68.731 79.5,67.5C 79.8537,64.0285 79.3537,60.6951 78,57.5C 78.3333,56.5 78.6667,55.5 79,54.5C 82.9707,55.085 86.804,56.085 90.5,57.5 Z"/></g>
<g><path style="opacity:1" fill="#58453f" d="M 112.5,30.5 C 114.64,32.458 116.973,34.1247 119.5,35.5C 119.5,35.8333 119.5,36.1667 119.5,36.5C 120.8,37.601 121.3,38.9343 121,40.5C 119.103,38.3347 116.936,37.6681 114.5,38.5C 115.453,40.4552 116.787,42.1218 118.5,43.5C 119.777,46.0341 119.777,48.5341 118.5,51C 119.448,51.4828 120.448,51.6495 121.5,51.5C 122.045,54.9976 121.212,57.9976 119,60.5C 118.012,63.4245 117.346,66.4245 117,69.5C 116.31,68.2617 115.81,68.2617 115.5,69.5C 114.167,69.5 113.5,68.8333 113.5,67.5C 113.196,64.4781 112.696,61.4781 112,58.5C 109.946,55.9528 108.113,53.2861 106.5,50.5C 106.149,47.7623 105.482,45.0956 104.5,42.5C 106.513,39.6203 108.68,37.6203 111,36.5C 111.505,34.4817 112.005,32.4817 112.5,30.5 Z"/></g>
<g><path style="opacity:1" fill="#988a85" d="M 97.5,50.5 C 96.8366,53.4815 96.17,56.4815 95.5,59.5C 95.5427,60.4164 95.8761,61.0831 96.5,61.5C 96.5,62.1667 96.5,62.8333 96.5,63.5C 98.1322,65.7069 100.299,67.3735 103,68.5C 104.303,68.0217 105.469,67.355 106.5,66.5C 106.5,67.8333 106.5,69.1667 106.5,70.5C 103.291,70.4107 100.125,70.744 97,71.5C 94.849,71.3569 93.1824,70.3569 92,68.5C 92.0229,71.8892 93.1895,74.8892 95.5,77.5C 95.631,78.2389 95.4643,78.9056 95,79.5C 93.5315,76.8579 91.3648,75.1912 88.5,74.5C 89.7371,71.3766 89.7371,67.8766 88.5,64C 88.4824,61.5897 89.1491,59.423 90.5,57.5C 92.1788,57.7148 93.1788,57.0481 93.5,55.5C 94.593,53.6508 95.9263,51.9842 97.5,50.5 Z"/></g>
<g><path style="opacity:1" fill="#e4e0dd" d="M 108.5,28.5 C 108.804,29.1499 109.137,29.8165 109.5,30.5C 107.946,34.006 106.112,37.3393 104,40.5C 103.833,42 103.667,43.5 103.5,45C 103.444,47.5738 104.444,49.4071 106.5,50.5C 108.113,53.2861 109.946,55.9528 112,58.5C 112.696,61.4781 113.196,64.4781 113.5,67.5C 112.662,67.8417 112.328,68.5084 112.5,69.5C 111.5,70.1667 110.5,70.8333 109.5,71.5C 108.391,71.4431 107.391,71.1098 106.5,70.5C 106.5,69.1667 106.5,67.8333 106.5,66.5C 109.557,63.9211 109.89,61.0878 107.5,58C 102.479,55.3604 98.8123,56.5271 96.5,61.5C 95.8761,61.0831 95.5427,60.4164 95.5,59.5C 96.17,56.4815 96.8366,53.4815 97.5,50.5C 97.6741,48.139 98.0074,45.8056 98.5,43.5C 98.815,39.6286 98.4816,35.9619 97.5,32.5C 96.596,31.791 96.2627,30.791 96.5,29.5C 100.519,29.3542 104.519,29.0209 108.5,28.5 Z"/></g>
<g><path style="opacity:1" fill="#5f3f3c" d="M 106.5,66.5 C 105.469,67.355 104.303,68.0217 103,68.5C 100.299,67.3735 98.1322,65.7069 96.5,63.5C 98.5943,62.7578 100.761,62.0911 103,61.5C 104.167,61.8333 105.333,62.1667 106.5,62.5C 105.284,63.0959 103.951,63.2626 102.5,63C 103.591,64.5501 104.924,65.7168 106.5,66.5 Z"/></g>
<g><path style="opacity:1" fill="#89716d" d="M 106.5,66.5 C 104.924,65.7168 103.591,64.5501 102.5,63C 103.951,63.2626 105.284,63.0959 106.5,62.5C 105.333,62.1667 104.167,61.8333 103,61.5C 100.761,62.0911 98.5943,62.7578 96.5,63.5C 96.5,62.8333 96.5,62.1667 96.5,61.5C 98.8123,56.5271 102.479,55.3604 107.5,58C 109.89,61.0878 109.557,63.9211 106.5,66.5 Z"/></g>
<g><path style="opacity:1" fill="#64544e" d="M 134.5,41.5 C 135.309,42.4687 136.309,43.3021 137.5,44C 136.833,44.3333 136.167,44.6667 135.5,45C 135.957,51.2964 136.624,57.7964 137.5,64.5C 136.662,64.8417 136.328,65.5084 136.5,66.5C 135.883,66.3893 135.383,66.056 135,65.5C 134.51,66.7932 134.343,68.1266 134.5,69.5C 132.263,68.551 129.929,67.8844 127.5,67.5C 127.736,64.7743 126.903,62.441 125,60.5C 124.333,58.8333 124.333,57.1667 125,55.5C 127.736,59.0338 130.903,60.5338 134.5,60C 133.801,55.5098 133.134,51.0098 132.5,46.5C 132.942,45.2613 133.609,44.2613 134.5,43.5C 134.5,42.8333 134.5,42.1667 134.5,41.5 Z"/></g>
<g><path style="opacity:1" fill="#8e837d" d="M 137.5,64.5 C 137.85,69.0361 137.183,73.3694 135.5,77.5C 134.903,77.2648 134.57,76.7648 134.5,76C 136.078,73.0316 136.745,69.8649 136.5,66.5C 136.328,65.5084 136.662,64.8417 137.5,64.5 Z"/></g>
<g><path style="opacity:1" fill="#392323" d="M 106.5,70.5 C 107.391,71.1098 108.391,71.4431 109.5,71.5C 109.586,72.4959 109.252,73.3292 108.5,74C 104.914,75.1076 101.247,75.6076 97.5,75.5C 97.5,76.8333 97.5,78.1667 97.5,79.5C 96.8333,78.8333 96.1667,78.1667 95.5,77.5C 93.1895,74.8892 92.0229,71.8892 92,68.5C 93.1824,70.3569 94.849,71.3569 97,71.5C 100.125,70.744 103.291,70.4107 106.5,70.5 Z"/></g>
<g><path style="opacity:1" fill="#d4afb9" d="M 112.5,69.5 C 111.7,71.6073 111.033,73.7739 110.5,76C 110.528,77.0698 110.861,77.9032 111.5,78.5C 110.649,80.8816 109.316,82.8816 107.5,84.5C 104.169,84.9819 101.503,83.9819 99.5,81.5C 98.8333,80.8333 98.1667,80.1667 97.5,79.5C 97.5,78.1667 97.5,76.8333 97.5,75.5C 101.247,75.6076 104.914,75.1076 108.5,74C 109.252,73.3292 109.586,72.4959 109.5,71.5C 110.5,70.8333 111.5,70.1667 112.5,69.5 Z"/></g>
<g><path style="opacity:1" fill="#8b6f6c" d="M 113.5,67.5 C 113.5,68.8333 114.167,69.5 115.5,69.5C 114.629,72.2716 114.629,74.9382 115.5,77.5C 117.262,77.6427 118.929,77.3094 120.5,76.5C 121.298,76.9569 121.631,77.6236 121.5,78.5C 120.329,79.3446 118.995,80.0113 117.5,80.5C 117.53,79.5028 117.03,78.8361 116,78.5C 114.323,77.3922 112.823,77.3922 111.5,78.5C 110.861,77.9032 110.528,77.0698 110.5,76C 111.033,73.7739 111.7,71.6073 112.5,69.5C 112.328,68.5084 112.662,67.8417 113.5,67.5 Z"/></g>
<g><path style="opacity:1" fill="#efece6" d="M 70.5,44.5 C 70.3514,49.1772 70.6847,53.8438 71.5,58.5C 71.1667,59.1667 70.8333,59.8333 70.5,60.5C 70.0514,65.878 70.718,71.2114 72.5,76.5C 73.3266,80.8072 73.9933,85.1405 74.5,89.5C 74.1075,91.2838 73.4408,92.9505 72.5,94.5C 70.638,97.4483 68.9713,100.448 67.5,103.5C 69.5601,95.1766 70.8934,86.6766 71.5,78C 70.324,76.0858 69.324,76.2524 68.5,78.5C 68.1667,78 67.8333,77.5 67.5,77C 69.3067,73.6863 69.8067,70.1863 69,66.5C 67.3831,64.0439 65.8831,61.5439 64.5,59C 66.3496,56.4973 67.683,53.6639 68.5,50.5C 67.5,49.6667 66.5,48.8333 65.5,48C 66.4491,47.3828 67.2825,47.5494 68,48.5C 68.9344,47.1416 69.7677,45.8083 70.5,44.5 Z"/></g>
<g><path style="opacity:1" fill="#bab3ad" d="M 72.5,76.5 C 75.2269,80.5925 75.8936,84.9258 74.5,89.5C 73.9933,85.1405 73.3266,80.8072 72.5,76.5 Z"/></g>
<g><path style="opacity:1" fill="#5a4d47" d="M 70.5,60.5 C 72.4488,61.1839 74.1155,62.3506 75.5,64C 74.2158,66.6337 74.8825,68.8004 77.5,70.5C 77.2907,71.086 76.9574,71.586 76.5,72C 79.0615,73.7376 81.7282,75.2376 84.5,76.5C 82.8998,77.6444 81.2331,78.8111 79.5,80C 80.7932,80.49 82.1266,80.6567 83.5,80.5C 84.5241,84.2233 85.8574,84.0567 87.5,80C 86.944,79.6174 86.6107,79.1174 86.5,78.5C 87.6737,77.4863 88.3404,76.153 88.5,74.5C 91.3648,75.1912 93.5315,76.8579 95,79.5C 95.4643,78.9056 95.631,78.2389 95.5,77.5C 96.1667,78.1667 96.8333,78.8333 97.5,79.5C 98.1667,80.1667 98.8333,80.8333 99.5,81.5C 98.8333,82.5 98.1667,83.5 97.5,84.5C 96.8288,85.8471 96.8288,87.0138 97.5,88C 94.4957,87.0011 93.329,88.1677 94,91.5C 95.0968,93.0526 96.4301,94.386 98,95.5C 98.3345,92.8101 99.5012,92.1435 101.5,93.5C 102.73,95.2972 103.396,97.2972 103.5,99.5C 102.5,99.5 101.5,99.5 100.5,99.5C 100.473,101.199 99.8062,102.533 98.5,103.5C 98.1667,103.5 97.8333,103.5 97.5,103.5C 96.6365,104.463 95.9698,104.463 95.5,103.5C 96.09,102.201 97.09,101.368 98.5,101C 97.6243,99.4152 96.2909,98.4152 94.5,98C 93.9288,96.7949 93.2621,95.6283 92.5,94.5C 91.914,94.7093 91.414,95.0426 91,95.5C 90.1853,93.3772 89.1853,91.3772 88,89.5C 87.2208,92.0972 86.7208,92.0972 86.5,89.5C 85.8166,87.8235 84.4832,87.1568 82.5,87.5C 82.5,85.5 82.5,83.5 82.5,81.5C 80.8561,81.2865 79.3561,81.6198 78,82.5C 77.6667,85.8333 77.3333,89.1667 77,92.5C 75.6703,93.5822 74.1703,94.2488 72.5,94.5C 73.4408,92.9505 74.1075,91.2838 74.5,89.5C 75.8936,84.9258 75.2269,80.5925 72.5,76.5C 70.718,71.2114 70.0514,65.878 70.5,60.5 Z"/></g>
<g><path style="opacity:1" fill="#968e86" d="M 84.5,76.5 C 84.8333,76.5 85.1667,76.5 85.5,76.5C 86.3382,76.8417 86.6716,77.5084 86.5,78.5C 86.6107,79.1174 86.944,79.6174 87.5,80C 85.8574,84.0567 84.5241,84.2233 83.5,80.5C 82.1266,80.6567 80.7932,80.49 79.5,80C 81.2331,78.8111 82.8998,77.6444 84.5,76.5 Z"/></g>
<g><path style="opacity:1" fill="#beaeab" d="M 99.5,81.5 C 101.503,83.9819 104.169,84.9819 107.5,84.5C 106.46,87.4029 105.127,90.2362 103.5,93C 105.103,93.2899 106.603,94.1233 108,95.5C 108.383,94.944 108.883,94.6107 109.5,94.5C 109.355,95.8409 110.021,97.1742 111.5,98.5C 111.141,100.485 110.308,101.151 109,100.5C 108.28,102.112 108.446,103.612 109.5,105C 108.552,105.483 107.552,105.649 106.5,105.5C 106.565,105.062 106.399,104.728 106,104.5C 105.667,105.167 105.333,105.833 105,106.5C 104.259,105.359 103.425,105.359 102.5,106.5C 101.148,105.476 99.8149,104.476 98.5,103.5C 99.8062,102.533 100.473,101.199 100.5,99.5C 101.5,99.5 102.5,99.5 103.5,99.5C 103.396,97.2972 102.73,95.2972 101.5,93.5C 102.067,91.9705 102.733,90.4705 103.5,89C 101.204,88.0239 99.2039,86.5239 97.5,84.5C 98.1667,83.5 98.8333,82.5 99.5,81.5 Z"/></g>
<g><path style="opacity:1" fill="#9e9085" d="M 97.5,84.5 C 99.2039,86.5239 101.204,88.0239 103.5,89C 102.733,90.4705 102.067,91.9705 101.5,93.5C 99.5012,92.1435 98.3345,92.8101 98,95.5C 96.4301,94.386 95.0968,93.0526 94,91.5C 93.329,88.1677 94.4957,87.0011 97.5,88C 96.8288,87.0138 96.8288,85.8471 97.5,84.5 Z"/></g>
<g><path style="opacity:1" fill="#dcd1cb" d="M 117.5,80.5 C 116.5,81.1667 115.5,81.8333 114.5,82.5C 110.955,84.3938 108.955,87.3938 108.5,91.5C 108.624,92.1067 108.957,92.44 109.5,92.5C 109.5,93.1667 109.5,93.8333 109.5,94.5C 108.883,94.6107 108.383,94.944 108,95.5C 106.603,94.1233 105.103,93.2899 103.5,93C 105.127,90.2362 106.46,87.4029 107.5,84.5C 109.316,82.8816 110.649,80.8816 111.5,78.5C 112.823,77.3922 114.323,77.3922 116,78.5C 117.03,78.8361 117.53,79.5028 117.5,80.5 Z"/></g>
<g><path style="opacity:1" fill="#878079" d="M 114.5,82.5 C 114.312,85.2061 113.312,87.5395 111.5,89.5C 112.674,91.3678 112.007,92.3678 109.5,92.5C 108.957,92.44 108.624,92.1067 108.5,91.5C 108.955,87.3938 110.955,84.3938 114.5,82.5 Z"/></g>
<g><path style="opacity:1" fill="#514643" d="M 111.5,89.5 C 113.205,90.5353 114.872,90.5353 116.5,89.5C 119.5,91.8333 119.167,93.5 115.5,94.5C 114.914,94.2907 114.414,93.9574 114,93.5C 113.665,95.5029 112.832,97.1696 111.5,98.5C 110.021,97.1742 109.355,95.8409 109.5,94.5C 109.5,93.8333 109.5,93.1667 109.5,92.5C 112.007,92.3678 112.674,91.3678 111.5,89.5 Z"/></g>
<g><path style="opacity:1" fill="#281e1b" d="M 128.5,82.5 C 127.533,83.8062 126.199,84.4729 124.5,84.5C 124.254,87.4701 122.588,88.8034 119.5,88.5C 119.201,90.604 119.534,92.604 120.5,94.5C 121.719,93.7366 122.719,92.7366 123.5,91.5C 124.541,93.9913 125.374,93.9913 126,91.5C 126.359,94.5443 127.026,94.8776 128,92.5C 128.692,93.0253 129.192,93.6919 129.5,94.5C 127.58,101.96 126.913,109.627 127.5,117.5C 125.052,118.473 122.385,118.806 119.5,118.5C 119.649,119.552 119.483,120.552 119,121.5C 118.333,120.167 117.667,120.167 117,121.5C 117.374,119.231 117.374,116.898 117,114.5C 115.748,117.014 115.248,119.68 115.5,122.5C 114.542,122.953 113.708,123.619 113,124.5C 112.805,122.793 112.805,121.126 113,119.5C 111.667,121.5 110.333,123.5 109,125.5C 109.128,121.105 107.294,119.771 103.5,121.5C 104.254,118.744 104.254,116.078 103.5,113.5C 104.309,112.531 105.309,111.698 106.5,111C 105.464,109.224 105.464,107.391 106.5,105.5C 107.552,105.649 108.552,105.483 109.5,105C 108.446,103.612 108.28,102.112 109,100.5C 110.308,101.151 111.141,100.485 111.5,98.5C 112.832,97.1696 113.665,95.5029 114,93.5C 114.414,93.9574 114.914,94.2907 115.5,94.5C 119.167,93.5 119.5,91.8333 116.5,89.5C 114.872,90.5353 113.205,90.5353 111.5,89.5C 113.312,87.5395 114.312,85.2061 114.5,82.5C 115.5,81.8333 116.5,81.1667 117.5,80.5C 118.995,80.0113 120.329,79.3446 121.5,78.5C 123.852,76.7758 125.519,74.4424 126.5,71.5C 127.002,70.479 127.668,70.3123 128.5,71C 128.642,74.6214 128.642,78.4547 128.5,82.5 Z"/></g>
<g><path style="opacity:1" fill="#241b1b" d="M 86.5,89.5 C 86.7208,92.0972 87.2208,92.0972 88,89.5C 89.1853,91.3772 90.1853,93.3772 91,95.5C 91.414,95.0426 91.914,94.7093 92.5,94.5C 93.2621,95.6283 93.9288,96.7949 94.5,98C 96.2909,98.4152 97.6243,99.4152 98.5,101C 97.09,101.368 96.09,102.201 95.5,103.5C 95.9698,104.463 96.6365,104.463 97.5,103.5C 98.6857,104.961 98.6857,106.295 97.5,107.5C 94.8919,108.685 92.5586,110.352 90.5,112.5C 91.5896,113.609 91.5896,114.609 90.5,115.5C 87.9877,114.62 85.821,113.287 84,111.5C 81.9622,115.418 80.1288,115.251 78.5,111C 80.3555,107.295 79.1888,105.129 75,104.5C 74.6987,101.493 74.8654,98.4929 75.5,95.5C 77.5,95.5 79.5,95.5 81.5,95.5C 81.3379,93.4727 81.5045,91.4727 82,89.5C 82.6667,92.1667 83.3333,92.1667 84,89.5C 84.3333,90.5 84.6667,91.5 85,92.5C 85.2321,91.2625 85.7321,90.2625 86.5,89.5 Z"/></g>
<g><path style="opacity:1" fill="#53403e" d="M 134.5,80.5 C 135.729,83.7326 137.396,86.7326 139.5,89.5C 142.138,95.2404 143.638,101.24 144,107.5C 143.692,106.692 143.192,106.025 142.5,105.5C 141.792,107.745 140.792,109.745 139.5,111.5C 139.426,109.589 138.426,108.422 136.5,108C 139.167,107.333 139.167,106.667 136.5,106C 138.901,105.195 138.734,104.362 136,103.5C 135.833,102.333 135.667,101.167 135.5,100C 135.746,97.0507 136.579,95.2174 138,94.5C 136.911,92.0348 135.244,90.0348 133,88.5C 131.234,89.2335 129.401,89.5668 127.5,89.5C 127.674,87.139 128.007,84.8056 128.5,82.5C 129.222,82.0825 129.722,81.4158 130,80.5C 131.461,82.9818 132.961,82.9818 134.5,80.5 Z"/></g>
<g><path style="opacity:1" fill="#3d322d" d="M 86.5,89.5 C 85.7321,90.2625 85.2321,91.2625 85,92.5C 84.6667,91.5 84.3333,90.5 84,89.5C 83.3333,92.1667 82.6667,92.1667 82,89.5C 81.5045,91.4727 81.3379,93.4727 81.5,95.5C 79.5,95.5 77.5,95.5 75.5,95.5C 74.8654,98.4929 74.6987,101.493 75,104.5C 79.1888,105.129 80.3555,107.295 78.5,111C 80.1288,115.251 81.9622,115.418 84,111.5C 85.821,113.287 87.9877,114.62 90.5,115.5C 91.5896,114.609 91.5896,113.609 90.5,112.5C 92.5586,110.352 94.8919,108.685 97.5,107.5C 95.8074,111.368 93.8074,115.034 91.5,118.5C 89.5504,117.628 87.5504,116.961 85.5,116.5C 81.3288,117.35 76.3288,117.35 70.5,116.5C 70.2989,112.696 69.6322,109.696 68.5,107.5C 67.6365,108.463 66.9698,108.463 66.5,107.5C 67.2458,106.264 67.5792,104.93 67.5,103.5C 68.9713,100.448 70.638,97.4483 72.5,94.5C 74.1703,94.2488 75.6703,93.5822 77,92.5C 77.3333,89.1667 77.6667,85.8333 78,82.5C 79.3561,81.6198 80.8561,81.2865 82.5,81.5C 82.5,83.5 82.5,85.5 82.5,87.5C 84.4832,87.1568 85.8166,87.8235 86.5,89.5 Z"/></g>
<g><path style="opacity:1" fill="#372522" d="M 128.5,82.5 C 128.007,84.8056 127.674,87.139 127.5,89.5C 129.401,89.5668 131.234,89.2335 133,88.5C 135.244,90.0348 136.911,92.0348 138,94.5C 136.579,95.2174 135.746,97.0507 135.5,100C 135.667,101.167 135.833,102.333 136,103.5C 138.734,104.362 138.901,105.195 136.5,106C 139.167,106.667 139.167,107.333 136.5,108C 138.426,108.422 139.426,109.589 139.5,111.5C 139.5,112.167 139.5,112.833 139.5,113.5C 138.609,114.261 137.942,115.261 137.5,116.5C 134.232,117.487 130.898,117.82 127.5,117.5C 126.913,109.627 127.58,101.96 129.5,94.5C 129.192,93.6919 128.692,93.0253 128,92.5C 127.026,94.8776 126.359,94.5443 126,91.5C 125.374,93.9913 124.541,93.9913 123.5,91.5C 122.719,92.7366 121.719,93.7366 120.5,94.5C 119.534,92.604 119.201,90.604 119.5,88.5C 122.588,88.8034 124.254,87.4701 124.5,84.5C 126.199,84.4729 127.533,83.8062 128.5,82.5 Z"/></g>
<g><path style="opacity:1" fill="#9c9088" d="M 97.5,103.5 C 97.8333,103.5 98.1667,103.5 98.5,103.5C 99.8149,104.476 101.148,105.476 102.5,106.5C 103.425,105.359 104.259,105.359 105,106.5C 105.333,105.833 105.667,105.167 106,104.5C 106.399,104.728 106.565,105.062 106.5,105.5C 105.464,107.391 105.464,109.224 106.5,111C 105.309,111.698 104.309,112.531 103.5,113.5C 103.5,112.167 103.5,110.833 103.5,109.5C 97.8127,109.681 95.1461,112.681 95.5,118.5C 100.539,118.451 100.705,119.118 96,120.5C 91.5145,118.648 87.1811,118.648 83,120.5C 80.2671,118.572 79.1005,119.239 79.5,122.5C 77.7231,122.214 76.0564,121.547 74.5,120.5C 73.4163,120.685 72.4163,121.018 71.5,121.5C 70.8333,121.5 70.1667,121.5 69.5,121.5C 69.8039,120.85 70.1373,120.183 70.5,119.5C 68.9967,115.644 68.33,111.644 68.5,107.5C 69.6322,109.696 70.2989,112.696 70.5,116.5C 70.6107,117.117 70.944,117.617 71.5,118C 75.5548,118.232 79.5548,118.732 83.5,119.5C 84.9185,118.995 85.5852,117.995 85.5,116.5C 87.5504,116.961 89.5504,117.628 91.5,118.5C 93.8074,115.034 95.8074,111.368 97.5,107.5C 98.6857,106.295 98.6857,104.961 97.5,103.5 Z"/></g>
<g><path style="opacity:1" fill="#685a52" d="M 85.5,116.5 C 85.5852,117.995 84.9185,118.995 83.5,119.5C 79.5548,118.732 75.5548,118.232 71.5,118C 70.944,117.617 70.6107,117.117 70.5,116.5C 76.3288,117.35 81.3288,117.35 85.5,116.5 Z"/></g>
<g><path style="opacity:1" fill="#6e5f54" d="M 115.5,122.5 C 117.833,122.5 120.167,122.5 122.5,122.5C 122.5,122.833 122.5,123.167 122.5,123.5C 117.44,124.197 112.44,125.197 107.5,126.5C 107.5,125.167 107.5,123.833 107.5,122.5C 105.901,122.768 104.568,122.434 103.5,121.5C 107.294,119.771 109.128,121.105 109,125.5C 110.333,123.5 111.667,121.5 113,119.5C 112.805,121.126 112.805,122.793 113,124.5C 113.708,123.619 114.542,122.953 115.5,122.5 Z"/></g>
<g><path style="opacity:1" fill="#c9bfb3" d="M 103.5,113.5 C 104.254,116.078 104.254,118.744 103.5,121.5C 104.568,122.434 105.901,122.768 107.5,122.5C 107.5,123.833 107.5,125.167 107.5,126.5C 112.44,125.197 117.44,124.197 122.5,123.5C 121.048,124.302 119.382,124.802 117.5,125C 116.953,125.925 116.287,126.758 115.5,127.5C 112.572,126.079 111.238,127.079 111.5,130.5C 109.516,130.383 107.85,131.05 106.5,132.5C 105.526,130.257 105.192,127.924 105.5,125.5C 103.549,125.773 102.049,125.107 101,123.5C 99.9887,124.337 98.8221,124.67 97.5,124.5C 97.4208,125.93 97.7542,127.264 98.5,128.5C 96.6717,131.574 95.6717,134.574 95.5,137.5C 94.6868,136.347 93.6868,136.347 92.5,137.5C 91.3044,137.154 91.3044,136.654 92.5,136C 90.9052,136.617 89.5719,136.284 88.5,135C 89.3081,134.692 89.9747,134.192 90.5,133.5C 89.5,132.833 88.5,132.167 87.5,131.5C 89.0326,127.771 88.5326,127.104 86,129.5C 83.775,127.722 81.275,127.222 78.5,128C 76.4992,130.325 74.1658,132.158 71.5,133.5C 73.1638,131.321 72.8305,129.488 70.5,128C 71.4506,127.282 71.6172,126.449 71,125.5C 70.3457,126.696 69.8457,126.696 69.5,125.5C 70.6302,124.378 71.2969,123.044 71.5,121.5C 72.4163,121.018 73.4163,120.685 74.5,120.5C 76.0564,121.547 77.7231,122.214 79.5,122.5C 79.1005,119.239 80.2671,118.572 83,120.5C 87.1811,118.648 91.5145,118.648 96,120.5C 100.705,119.118 100.539,118.451 95.5,118.5C 95.1461,112.681 97.8127,109.681 103.5,109.5C 103.5,110.833 103.5,112.167 103.5,113.5 Z"/></g>
<g><path style="opacity:1" fill="#ded2c0" d="M 122.5,123.5 C 128.005,123.079 131.672,125.413 133.5,130.5C 132.559,133.125 131.393,133.125 130,130.5C 128.16,131.833 127.66,131.666 128.5,130C 127.324,128.086 126.324,128.252 125.5,130.5C 124.167,127.833 122.833,127.833 121.5,130.5C 120.808,129.975 120.308,129.308 120,128.5C 120.121,131.078 119.954,133.578 119.5,136C 119.905,136.945 120.572,137.612 121.5,138C 120.289,139.113 120.289,140.28 121.5,141.5C 120.68,143.111 119.346,143.778 117.5,143.5C 116.504,143.414 115.671,143.748 115,144.5C 114.313,146.568 114.48,148.568 115.5,150.5C 114.248,152.001 113.248,153.668 112.5,155.5C 109.63,152.719 107.63,149.386 106.5,145.5C 106.818,144.353 107.484,143.519 108.5,143C 107.12,141.075 105.62,139.241 104,137.5C 103.667,138.167 103.333,138.833 103,139.5C 102.333,138.167 101.667,136.833 101,135.5C 99.9179,137.618 98.7512,139.618 97.5,141.5C 96.5,140.833 95.5,140.167 94.5,139.5C 95.3382,139.158 95.6716,138.492 95.5,137.5C 95.6717,134.574 96.6717,131.574 98.5,128.5C 97.7542,127.264 97.4208,125.93 97.5,124.5C 98.8221,124.67 99.9887,124.337 101,123.5C 102.049,125.107 103.549,125.773 105.5,125.5C 105.192,127.924 105.526,130.257 106.5,132.5C 107.85,131.05 109.516,130.383 111.5,130.5C 111.238,127.079 112.572,126.079 115.5,127.5C 116.287,126.758 116.953,125.925 117.5,125C 119.382,124.802 121.048,124.302 122.5,123.5 Z"/></g>
<g><path style="opacity:1" fill="#5d4c43" d="M 139.5,113.5 C 141.373,119.954 143.54,126.288 146,132.5C 146.352,140.177 146.852,147.844 147.5,155.5C 147.493,157.369 147.16,159.036 146.5,160.5C 145.477,157.607 145.477,154.774 146.5,152C 144.438,150.468 143.104,148.468 142.5,146C 140.62,146.51 138.787,146.343 137,145.5C 136.667,146.5 136.333,147.5 136,148.5C 134.708,147.209 133.542,147.209 132.5,148.5C 131.065,147.21 130.065,145.544 129.5,143.5C 127.698,142.014 125.698,141.014 123.5,140.5C 124.36,136.974 126.36,134.307 129.5,132.5C 130.522,132.855 131.189,133.522 131.5,134.5C 132.622,135.947 134.122,136.947 136,137.5C 137.728,135.806 137.228,134.639 134.5,134C 136.513,133.125 136.513,131.791 134.5,130C 136.864,128.988 138.198,127.655 138.5,126C 136.338,123.131 133.672,120.965 130.5,119.5C 127.35,119.766 124.683,120.766 122.5,122.5C 120.167,122.5 117.833,122.5 115.5,122.5C 115.248,119.68 115.748,117.014 117,114.5C 117.374,116.898 117.374,119.231 117,121.5C 117.667,120.167 118.333,120.167 119,121.5C 119.483,120.552 119.649,119.552 119.5,118.5C 122.385,118.806 125.052,118.473 127.5,117.5C 130.898,117.82 134.232,117.487 137.5,116.5C 137.942,115.261 138.609,114.261 139.5,113.5 Z"/></g>
<g><path style="opacity:1" fill="#ada093" d="M 95.5,137.5 C 95.6716,138.492 95.3382,139.158 94.5,139.5C 92.8679,140.446 91.2012,141.446 89.5,142.5C 87.6147,141.391 85.6147,140.557 83.5,140C 82.8742,139.25 82.3742,138.416 82,137.5C 81.1739,139.405 80.0072,139.739 78.5,138.5C 81.4149,136.176 81.5815,134.176 79,132.5C 78.5635,135.772 76.7301,137.439 73.5,137.5C 73.4142,136.504 73.7476,135.671 74.5,135C 72.892,134.342 71.7253,134.842 71,136.5C 69.0731,135.238 69.2398,134.238 71.5,133.5C 74.1658,132.158 76.4992,130.325 78.5,128C 81.275,127.222 83.775,127.722 86,129.5C 88.5326,127.104 89.0326,127.771 87.5,131.5C 88.5,132.167 89.5,132.833 90.5,133.5C 89.9747,134.192 89.3081,134.692 88.5,135C 89.5719,136.284 90.9052,136.617 92.5,136C 91.3044,136.654 91.3044,137.154 92.5,137.5C 93.6868,136.347 94.6868,136.347 95.5,137.5 Z"/></g>
<g><path style="opacity:1" fill="#aca49c" d="M 131.5,134.5 C 133.176,133.817 133.843,132.483 133.5,130.5C 131.672,125.413 128.005,123.079 122.5,123.5C 122.5,123.167 122.5,122.833 122.5,122.5C 124.683,120.766 127.35,119.766 130.5,119.5C 133.672,120.965 136.338,123.131 138.5,126C 138.198,127.655 136.864,128.988 134.5,130C 136.513,131.791 136.513,133.125 134.5,134C 137.228,134.639 137.728,135.806 136,137.5C 134.122,136.947 132.622,135.947 131.5,134.5 Z"/></g>
<g><path style="opacity:1" fill="#736b67" d="M 69.5,121.5 C 70.1667,121.5 70.8333,121.5 71.5,121.5C 71.2969,123.044 70.6302,124.378 69.5,125.5C 69.8457,126.696 70.3457,126.696 71,125.5C 71.6172,126.449 71.4506,127.282 70.5,128C 72.8305,129.488 73.1638,131.321 71.5,133.5C 69.2398,134.238 69.0731,135.238 71,136.5C 71.7253,134.842 72.892,134.342 74.5,135C 73.7476,135.671 73.4142,136.504 73.5,137.5C 72.5082,139.456 71.5082,141.456 70.5,143.5C 68.0728,142.721 68.0728,141.554 70.5,140C 69.1807,139.805 67.8474,139.972 66.5,140.5C 66.0618,140.565 65.7284,140.399 65.5,140C 67.593,133.986 68.9263,127.82 69.5,121.5 Z"/></g>
<g><path style="opacity:1" fill="#cdc3b8" d="M 133.5,130.5 C 133.843,132.483 133.176,133.817 131.5,134.5C 131.189,133.522 130.522,132.855 129.5,132.5C 126.36,134.307 124.36,136.974 123.5,140.5C 124.931,142.785 125.931,145.285 126.5,148C 125.234,148.309 124.067,148.809 123,149.5C 122.819,152.695 122.319,155.695 121.5,158.5C 120.493,158.452 120.16,159.452 120.5,161.5C 118.891,164.149 118.057,167.149 118,170.5C 117.667,170.833 117.333,171.167 117,171.5C 116.79,169.942 116.29,168.609 115.5,167.5C 115.279,166.265 114.612,165.265 113.5,164.5C 114.244,161.557 114.744,158.557 115,155.5C 116.487,154.845 117.653,153.845 118.5,152.5C 118.623,149.542 118.29,146.542 117.5,143.5C 119.346,143.778 120.68,143.111 121.5,141.5C 120.289,140.28 120.289,139.113 121.5,138C 120.572,137.612 119.905,136.945 119.5,136C 119.954,133.578 120.121,131.078 120,128.5C 120.308,129.308 120.808,129.975 121.5,130.5C 122.833,127.833 124.167,127.833 125.5,130.5C 126.324,128.252 127.324,128.086 128.5,130C 127.66,131.666 128.16,131.833 130,130.5C 131.393,133.125 132.559,133.125 133.5,130.5 Z"/></g>
<g><path style="opacity:1" fill="#4b3e33" d="M 70.5,143.5 C 70.4257,145.411 69.4257,146.578 67.5,147C 68.4706,148.204 69.4706,148.704 70.5,148.5C 68.6155,149.197 68.2822,150.197 69.5,151.5C 68.225,153.189 66.8917,153.522 65.5,152.5C 65.2367,148.4 65.5701,144.4 66.5,140.5C 67.8474,139.972 69.1807,139.805 70.5,140C 68.0728,141.554 68.0728,142.721 70.5,143.5 Z"/></g>
<g><path style="opacity:1" fill="#8c8278" d="M 79.5,151.5 C 79.8808,149.058 79.2141,148.391 77.5,149.5C 77.1667,148.833 76.8333,148.167 76.5,147.5C 74.2145,148.133 72.5478,149.466 71.5,151.5C 70.3146,152.857 69.3146,154.357 68.5,156C 69.8111,159.431 70.8111,162.931 71.5,166.5C 70.5084,166.672 69.8417,166.338 69.5,165.5C 68.6712,162.185 67.8379,158.852 67,155.5C 66.0656,156.858 65.2323,158.192 64.5,159.5C 64.1984,156.941 64.5318,154.607 65.5,152.5C 66.8917,153.522 68.225,153.189 69.5,151.5C 68.2822,150.197 68.6155,149.197 70.5,148.5C 69.4706,148.704 68.4706,148.204 67.5,147C 69.4257,146.578 70.4257,145.411 70.5,143.5C 71.1174,143.389 71.6174,143.056 72,142.5C 72,143.833 72,145.167 72,146.5C 73.0736,145.382 74.2402,144.382 75.5,143.5C 74.1285,141.38 74.7952,140.38 77.5,140.5C 77.3505,141.552 77.5172,142.552 78,143.5C 78.7175,142.549 79.5509,142.383 80.5,143C 78.1091,145.874 78.4424,147.374 81.5,147.5C 81.7709,149.38 81.1042,150.713 79.5,151.5 Z"/></g>
<g><path style="opacity:1" fill="#7e716b" d="M 123.5,140.5 C 125.698,141.014 127.698,142.014 129.5,143.5C 130.065,145.544 131.065,147.21 132.5,148.5C 132.649,149.552 132.483,150.552 132,151.5C 128.908,146.03 127.908,146.363 129,152.5C 128.667,151.833 128.333,151.167 128,150.5C 126.701,150.966 125.201,150.966 123.5,150.5C 123.666,155.179 123.499,159.845 123,164.5C 122.187,162.564 121.687,160.564 121.5,158.5C 122.319,155.695 122.819,152.695 123,149.5C 124.067,148.809 125.234,148.309 126.5,148C 125.931,145.285 124.931,142.785 123.5,140.5 Z"/></g>
<g><path style="opacity:1" fill="#9a918b" d="M 86.5,157.5 C 85.1541,161.992 82.4875,162.825 78.5,160C 78.1667,159.667 77.8333,159.333 77.5,159C 79.0163,157.103 79.683,154.936 79.5,152.5C 80.29,153.609 80.79,154.942 81,156.5C 83.5728,155.194 85.9061,153.527 88,151.5C 88.8651,153.888 88.0317,155.388 85.5,156C 86.056,156.383 86.3893,156.883 86.5,157.5 Z"/></g>
<g><path style="opacity:1" fill="#e0dbd5" d="M 69.5,165.5 C 69.2927,167.604 69.126,169.937 69,172.5C 67.9326,173.191 66.7659,173.691 65.5,174C 65.4871,177.34 65.4871,180.173 65.5,182.5C 64.2521,181.666 63.5854,180.333 63.5,178.5C 64.0437,176.326 64.0437,174.326 63.5,172.5C 64.3914,171.41 65.3914,171.41 66.5,172.5C 69.4265,170.184 69.0932,168.684 65.5,168C 66.841,164.738 66.5076,164.238 64.5,166.5C 63.2031,164.027 63.2031,161.693 64.5,159.5C 65.2323,158.192 66.0656,156.858 67,155.5C 67.8379,158.852 68.6712,162.185 69.5,165.5 Z"/></g>
<g><path style="opacity:1" fill="#4e453f" d="M 79.5,151.5 C 79.5,151.833 79.5,152.167 79.5,152.5C 79.683,154.936 79.0163,157.103 77.5,159C 77.8333,159.333 78.1667,159.667 78.5,160C 82.4875,162.825 85.1541,161.992 86.5,157.5C 87.5,157.5 88.5,157.5 89.5,157.5C 89.7059,161.898 89.3726,166.232 88.5,170.5C 87.2101,171.058 86.3768,172.058 86,173.5C 84.9593,171.689 83.7927,171.355 82.5,172.5C 79.6926,173.657 77.0259,173.657 74.5,172.5C 77.3252,172.838 79.4918,171.838 81,169.5C 82.7683,170.131 83.935,169.298 84.5,167C 84.2645,166.127 83.9312,165.293 83.5,164.5C 81.4404,162.299 79.2738,160.965 77,160.5C 76.7468,157.8 76.7468,155.133 77,152.5C 75.2835,153.552 74.2835,152.886 74,150.5C 73.3292,151.252 72.4959,151.586 71.5,151.5C 72.5478,149.466 74.2145,148.133 76.5,147.5C 76.8333,148.167 77.1667,148.833 77.5,149.5C 79.2141,148.391 79.8808,149.058 79.5,151.5 Z"/></g>
<g><path style="opacity:1" fill="#281f1b" d="M 74.5,172.5 C 73.8333,171.167 72.8333,170.167 71.5,169.5C 71.5,168.5 71.5,167.5 71.5,166.5C 70.8111,162.931 69.8111,159.431 68.5,156C 69.3146,154.357 70.3146,152.857 71.5,151.5C 72.4959,151.586 73.3292,151.252 74,150.5C 74.2835,152.886 75.2835,153.552 77,152.5C 76.7468,155.133 76.7468,157.8 77,160.5C 79.2738,160.965 81.4404,162.299 83.5,164.5C 83.9312,165.293 84.2645,166.127 84.5,167C 83.935,169.298 82.7683,170.131 81,169.5C 79.4918,171.838 77.3252,172.838 74.5,172.5 Z"/></g>
<g><path style="opacity:1" fill="#e3dbcf" d="M 117.5,143.5 C 118.29,146.542 118.623,149.542 118.5,152.5C 117.653,153.845 116.487,154.845 115,155.5C 114.744,158.557 114.244,161.557 113.5,164.5C 114.612,165.265 115.279,166.265 115.5,167.5C 114.766,168.708 114.433,170.041 114.5,171.5C 113.233,176.956 111.4,182.29 109,187.5C 107.632,186.007 107.465,184.507 108.5,183C 107.551,182.383 106.718,182.549 106,183.5C 104.667,180.833 103.333,180.833 102,183.5C 101.129,176.526 100.463,169.526 100,162.5C 99.6667,165.167 99.3333,167.833 99,170.5C 96.859,166.237 97.0257,162.07 99.5,158C 96.5749,152.766 95.9082,147.266 97.5,141.5C 98.7512,139.618 99.9179,137.618 101,135.5C 101.667,136.833 102.333,138.167 103,139.5C 103.333,138.833 103.667,138.167 104,137.5C 105.62,139.241 107.12,141.075 108.5,143C 107.484,143.519 106.818,144.353 106.5,145.5C 107.63,149.386 109.63,152.719 112.5,155.5C 113.248,153.668 114.248,152.001 115.5,150.5C 114.48,148.568 114.313,146.568 115,144.5C 115.671,143.748 116.504,143.414 117.5,143.5 Z"/></g>
<g><path style="opacity:1" fill="#5d463d" d="M 146.5,160.5 C 145.757,165.881 144.757,171.214 143.5,176.5C 143.592,178.258 143.925,179.924 144.5,181.5C 143.883,181.611 143.383,181.944 143,182.5C 142.623,181.058 141.79,180.058 140.5,179.5C 140.037,176.518 139.704,173.518 139.5,170.5C 137.41,170.45 136.077,171.45 135.5,173.5C 133.257,174.474 130.924,174.808 128.5,174.5C 127.508,174.672 126.842,174.338 126.5,173.5C 126.5,173.167 126.5,172.833 126.5,172.5C 129.268,171.934 131.935,171.934 134.5,172.5C 135.08,168.071 135.414,163.738 135.5,159.5C 138.276,159.089 138.943,159.922 137.5,162C 137.878,163.635 138.544,165.135 139.5,166.5C 141.061,165.653 142.561,165.986 144,167.5C 144.651,165.765 144.485,164.098 143.5,162.5C 144.782,162.912 145.782,162.246 146.5,160.5 Z"/></g>
<g><path style="opacity:1" fill="#3e2e26" d="M 146.5,160.5 C 145.782,162.246 144.782,162.912 143.5,162.5C 144.485,164.098 144.651,165.765 144,167.5C 142.561,165.986 141.061,165.653 139.5,166.5C 138.544,165.135 137.878,163.635 137.5,162C 138.943,159.922 138.276,159.089 135.5,159.5C 135.414,163.738 135.08,168.071 134.5,172.5C 131.935,171.934 129.268,171.934 126.5,172.5C 124.622,170.491 122.456,170.158 120,171.5C 120.046,168.2 120.212,164.866 120.5,161.5C 120.16,159.452 120.493,158.452 121.5,158.5C 121.687,160.564 122.187,162.564 123,164.5C 123.499,159.845 123.666,155.179 123.5,150.5C 125.201,150.966 126.701,150.966 128,150.5C 128.333,151.167 128.667,151.833 129,152.5C 127.908,146.363 128.908,146.03 132,151.5C 132.483,150.552 132.649,149.552 132.5,148.5C 133.542,147.209 134.708,147.209 136,148.5C 136.333,147.5 136.667,146.5 137,145.5C 138.787,146.343 140.62,146.51 142.5,146C 143.104,148.468 144.438,150.468 146.5,152C 145.477,154.774 145.477,157.607 146.5,160.5 Z"/></g>
<g><path style="opacity:1" fill="#84786e" d="M 120.5,161.5 C 120.212,164.866 120.046,168.2 120,171.5C 122.456,170.158 124.622,170.491 126.5,172.5C 125.07,172.579 123.736,172.246 122.5,171.5C 121.833,176.985 121.167,182.319 120.5,187.5C 120.875,184.603 120.375,181.937 119,179.5C 118.771,182.735 118.604,185.735 118.5,188.5C 117.542,188.953 116.708,189.619 116,190.5C 116.155,187.859 116.655,185.193 117.5,182.5C 116.837,179.194 116.337,175.861 116,172.5C 114.893,173.712 114.393,173.379 114.5,171.5C 114.433,170.041 114.766,168.708 115.5,167.5C 116.29,168.609 116.79,169.942 117,171.5C 117.333,171.167 117.667,170.833 118,170.5C 118.057,167.149 118.891,164.149 120.5,161.5 Z"/></g>
<g><path style="opacity:1" fill="#b0a7a0" d="M 69.5,165.5 C 69.8417,166.338 70.5084,166.672 71.5,166.5C 71.5,167.5 71.5,168.5 71.5,169.5C 71.1751,172.316 70.1751,174.816 68.5,177C 70.8329,178.243 71.4996,179.909 70.5,182C 71.1667,183 71.8333,184 72.5,185C 70.6769,185.997 69.0103,187.164 67.5,188.5C 67.0113,187.005 66.3446,185.671 65.5,184.5C 65.5,183.833 65.5,183.167 65.5,182.5C 65.4871,180.173 65.4871,177.34 65.5,174C 66.7659,173.691 67.9326,173.191 69,172.5C 69.126,169.937 69.2927,167.604 69.5,165.5 Z"/></g>
<g><path style="opacity:1" fill="#3f352c" d="M 88.5,170.5 C 90.7107,172.495 91.0441,174.828 89.5,177.5C 88.8333,177.5 88.5,177.833 88.5,178.5C 86.9907,179.859 86.324,179.359 86.5,177C 87.0329,174.774 87.6996,172.607 88.5,170.5 Z"/></g>
<g><path style="opacity:1" fill="#746b61" d="M 88.5,170.5 C 87.6996,172.607 87.0329,174.774 86.5,177C 86.324,179.359 86.9907,179.859 88.5,178.5C 87.9524,180.394 86.9524,182.06 85.5,183.5C 84.6764,180.215 84.1764,176.882 84,173.5C 83.6174,172.944 83.1174,172.611 82.5,172.5C 83.7927,171.355 84.9593,171.689 86,173.5C 86.3768,172.058 87.2101,171.058 88.5,170.5 Z"/></g>
<g><path style="opacity:1" fill="#3f2f28" d="M 140.5,179.5 C 141.79,180.058 142.623,181.058 143,182.5C 143.383,181.944 143.883,181.611 144.5,181.5C 144.842,182.338 145.508,182.672 146.5,182.5C 147.29,183.401 148.29,184.068 149.5,184.5C 149.5,186.167 149.5,187.833 149.5,189.5C 147.5,189.5 145.5,189.5 143.5,189.5C 143.167,188.5 142.5,187.833 141.5,187.5C 140.621,185.772 139.954,183.939 139.5,182C 139.528,180.93 139.861,180.097 140.5,179.5 Z"/></g>
<g><path style="opacity:1" fill="#c3baac" d="M 94.5,139.5 C 95.5,140.167 96.5,140.833 97.5,141.5C 95.9082,147.266 96.5749,152.766 99.5,158C 97.0257,162.07 96.859,166.237 99,170.5C 99.3333,167.833 99.6667,165.167 100,162.5C 100.463,169.526 101.129,176.526 102,183.5C 103.333,180.833 104.667,180.833 106,183.5C 106.718,182.549 107.551,182.383 108.5,183C 107.465,184.507 107.632,186.007 109,187.5C 111.4,182.29 113.233,176.956 114.5,171.5C 114.393,173.379 114.893,173.712 116,172.5C 116.337,175.861 116.837,179.194 117.5,182.5C 116.655,185.193 116.155,187.859 116,190.5C 116.708,189.619 117.542,188.953 118.5,188.5C 117.735,191.096 117.401,193.763 117.5,196.5C 117.662,198.527 117.495,200.527 117,202.5C 115.806,200.377 115.14,198.043 115,195.5C 113.482,195.057 112.315,195.724 111.5,197.5C 110.583,196.873 109.583,196.539 108.5,196.5C 108.5,195.833 108.5,195.167 108.5,194.5C 108.938,194.565 109.272,194.399 109.5,194C 108.107,192.829 107.273,191.329 107,189.5C 105.763,191.104 104.597,192.771 103.5,194.5C 102.488,191.662 100.488,190.329 97.5,190.5C 97.6495,189.448 97.4828,188.448 97,187.5C 95.9914,189.025 95.4914,190.692 95.5,192.5C 94.2632,191.035 93.2632,189.368 92.5,187.5C 92.5,185.167 92.5,182.833 92.5,180.5C 91.5,180.5 90.5,180.5 89.5,180.5C 89.5,179.5 89.5,178.5 89.5,177.5C 91.0441,174.828 90.7107,172.495 88.5,170.5C 89.3726,166.232 89.7059,161.898 89.5,157.5C 88.5,157.5 87.5,157.5 86.5,157.5C 86.3893,156.883 86.056,156.383 85.5,156C 88.0317,155.388 88.8651,153.888 88,151.5C 85.9061,153.527 83.5728,155.194 81,156.5C 80.79,154.942 80.29,153.609 79.5,152.5C 79.5,152.167 79.5,151.833 79.5,151.5C 81.1042,150.713 81.7709,149.38 81.5,147.5C 78.4424,147.374 78.1091,145.874 80.5,143C 79.5509,142.383 78.7175,142.549 78,143.5C 77.5172,142.552 77.3505,141.552 77.5,140.5C 74.7952,140.38 74.1285,141.38 75.5,143.5C 74.2402,144.382 73.0736,145.382 72,146.5C 72,145.167 72,143.833 72,142.5C 71.6174,143.056 71.1174,143.389 70.5,143.5C 71.5082,141.456 72.5082,139.456 73.5,137.5C 76.7301,137.439 78.5635,135.772 79,132.5C 81.5815,134.176 81.4149,136.176 78.5,138.5C 80.0072,139.739 81.1739,139.405 82,137.5C 82.3742,138.416 82.8742,139.25 83.5,140C 85.6147,140.557 87.6147,141.391 89.5,142.5C 91.2012,141.446 92.8679,140.446 94.5,139.5 Z"/></g>
<g><path style="opacity:1" fill="#f0eae5" d="M 146.5,182.5 C 149.167,182.833 151.833,183.167 154.5,183.5C 154.863,186.989 155.196,190.489 155.5,194C 155.4,196.302 154.733,198.302 153.5,200C 157.47,200.225 158.137,201.559 155.5,204C 156.029,205.559 156.696,207.059 157.5,208.5C 156.757,209.182 156.091,209.849 155.5,210.5C 154.194,208.527 152.527,206.861 150.5,205.5C 149.761,198.389 149.428,191.389 149.5,184.5C 148.29,184.068 147.29,183.401 146.5,182.5 Z"/></g>
<g><path style="opacity:1" fill="#a59b91" d="M 74.5,172.5 C 77.0259,173.657 79.6926,173.657 82.5,172.5C 83.1174,172.611 83.6174,172.944 84,173.5C 84.1764,176.882 84.6764,180.215 85.5,183.5C 86.9524,182.06 87.9524,180.394 88.5,178.5C 88.5,177.833 88.8333,177.5 89.5,177.5C 89.5,178.5 89.5,179.5 89.5,180.5C 90.5,180.5 91.5,180.5 92.5,180.5C 92.5,182.833 92.5,185.167 92.5,187.5C 91.7321,186.737 91.2321,185.737 91,184.5C 89.7318,184.616 88.3985,184.949 87,185.5C 86.9145,188.576 87.4145,191.576 88.5,194.5C 87.5,194.5 86.5,194.5 85.5,194.5C 85.6399,192.876 84.9733,191.71 83.5,191C 84.9255,189.286 84.5922,187.953 82.5,187C 83.7948,183.214 83.7948,179.38 82.5,175.5C 80.4376,175.146 78.4376,174.979 76.5,175C 77.9164,177.455 78.2497,179.955 77.5,182.5C 77.9005,184.434 78.9005,185.934 80.5,187C 78.8258,189.508 77.8258,192.342 77.5,195.5C 78,196.5 78.5,197.5 79,198.5C 79.3248,205.524 79.8248,212.524 80.5,219.5C 78.8368,217.507 77.6701,215.174 77,212.5C 75.3818,214.448 74.3818,217.114 74,220.5C 73.6174,219.944 73.1174,219.611 72.5,219.5C 72.7194,215.622 73.7194,211.956 75.5,208.5C 74.9017,207.205 74.4017,205.872 74,204.5C 71.9829,207.144 71.1495,210.144 71.5,213.5C 71.1667,213.5 70.8333,213.5 70.5,213.5C 70.2641,210.391 70.5975,207.391 71.5,204.5C 73.0888,201.908 74.7555,201.908 76.5,204.5C 77.6013,200.753 77.268,197.087 75.5,193.5C 71.4726,192.623 68.6393,194.29 67,198.5C 66.7216,197.584 66.2216,196.918 65.5,196.5C 64.1667,195.167 64.1667,193.833 65.5,192.5C 65.369,193.239 65.5357,193.906 66,194.5C 68.4957,191.446 71.6624,189.779 75.5,189.5C 75.7549,183.931 74.7549,178.598 72.5,173.5C 72.9569,172.702 73.6236,172.369 74.5,172.5 Z"/></g>
<g><path style="opacity:1" fill="#8c8279" d="M 108.5,194.5 C 107.542,194.047 106.708,193.381 106,192.5C 105.426,195.321 104.092,197.654 102,199.5C 102.035,195.755 101.035,195.088 99,197.5C 98.6012,197.272 98.4346,196.938 98.5,196.5C 97.853,194.859 96.853,193.526 95.5,192.5C 95.4914,190.692 95.9914,189.025 97,187.5C 97.4828,188.448 97.6495,189.448 97.5,190.5C 100.488,190.329 102.488,191.662 103.5,194.5C 104.597,192.771 105.763,191.104 107,189.5C 107.273,191.329 108.107,192.829 109.5,194C 109.272,194.399 108.938,194.565 108.5,194.5 Z"/></g>
<g><path style="opacity:1" fill="#60564e" d="M 139.5,187.5 C 140.067,189.03 140.733,190.53 141.5,192C 140.552,192.483 139.552,192.649 138.5,192.5C 138.332,190.224 137.999,187.891 137.5,185.5C 138.813,184.782 139.48,185.449 139.5,187.5 Z"/></g>
<g><path style="opacity:1" fill="#6d645b" d="M 71.5,169.5 C 72.8333,170.167 73.8333,171.167 74.5,172.5C 73.6236,172.369 72.9569,172.702 72.5,173.5C 74.7549,178.598 75.7549,183.931 75.5,189.5C 71.6624,189.779 68.4957,191.446 66,194.5C 65.5357,193.906 65.369,193.239 65.5,192.5C 66.1667,191.167 66.8333,189.833 67.5,188.5C 69.0103,187.164 70.6769,185.997 72.5,185C 71.8333,184 71.1667,183 70.5,182C 71.4996,179.909 70.8329,178.243 68.5,177C 70.1751,174.816 71.1751,172.316 71.5,169.5 Z"/></g>
<g><path style="opacity:1" fill="#e8e4de" d="M 126.5,173.5 C 126.842,174.338 127.508,174.672 128.5,174.5C 130.265,175.461 132.265,175.795 134.5,175.5C 133.362,181.522 133.028,187.522 133.5,193.5C 130.534,197.699 131.034,201.366 135,204.5C 135.333,203.5 135.667,202.5 136,201.5C 137.455,208.444 137.788,215.444 137,222.5C 136.667,220.167 136.333,217.833 136,215.5C 133.562,216.866 133.062,216.366 134.5,214C 134.389,212.278 133.889,212.112 133,213.5C 132.667,211.5 132.333,209.5 132,207.5C 131.457,210.868 131.624,214.201 132.5,217.5C 131.597,220.391 131.264,223.391 131.5,226.5C 129.002,224.334 126.002,223.334 122.5,223.5C 122.579,221.334 123.246,219.334 124.5,217.5C 122.58,211.293 122.08,204.96 123,198.5C 123.893,199.711 124.726,199.711 125.5,198.5C 125.586,194.246 125.253,189.913 124.5,185.5C 126.604,185.799 128.604,185.466 130.5,184.5C 129.528,182.695 128.361,181.028 127,179.5C 126.417,181.002 125.584,182.335 124.5,183.5C 123.513,180.232 123.18,176.898 123.5,173.5C 124.5,173.5 125.5,173.5 126.5,173.5 Z"/></g>
<g><path style="opacity:1" fill="#594d44" d="M 120.5,187.5 C 120.5,189.5 120.5,191.5 120.5,193.5C 119.686,195.631 119.186,197.964 119,200.5C 118.79,198.942 118.29,197.609 117.5,196.5C 117.401,193.763 117.735,191.096 118.5,188.5C 118.604,185.735 118.771,182.735 119,179.5C 120.375,181.937 120.875,184.603 120.5,187.5 Z"/></g>
<g><path style="opacity:1" fill="#605147" d="M 149.5,184.5 C 149.428,191.389 149.761,198.389 150.5,205.5C 149.624,205.631 148.957,205.298 148.5,204.5C 147.907,202.618 147.24,200.785 146.5,199C 145.181,198.805 143.847,198.972 142.5,199.5C 141.069,198.22 140.402,196.553 140.5,194.5C 143.558,194.374 143.891,192.874 141.5,190C 142.094,189.536 142.761,189.369 143.5,189.5C 145.5,189.5 147.5,189.5 149.5,189.5C 149.5,187.833 149.5,186.167 149.5,184.5 Z"/></g>
<g><path style="opacity:1" fill="#62584f" d="M 92.5,187.5 C 93.2632,189.368 94.2632,191.035 95.5,192.5C 96.853,193.526 97.853,194.859 98.5,196.5C 93.7884,196.545 91.4551,198.878 91.5,203.5C 89.1324,201.044 88.1324,198.044 88.5,194.5C 87.4145,191.576 86.9145,188.576 87,185.5C 88.3985,184.949 89.7318,184.616 91,184.5C 91.2321,185.737 91.7321,186.737 92.5,187.5 Z"/></g>
<g><path style="opacity:1" fill="#554b42" d="M 71.5,204.5 C 71.9923,200.71 71.159,200.044 69,202.5C 68.6667,202.167 68.3333,201.833 68,201.5C 67.5814,202.672 66.9147,203.672 66,204.5C 65.79,202.942 65.29,201.609 64.5,200.5C 65.2341,199.292 65.5674,197.959 65.5,196.5C 66.2216,196.918 66.7216,197.584 67,198.5C 68.6393,194.29 71.4726,192.623 75.5,193.5C 77.268,197.087 77.6013,200.753 76.5,204.5C 74.7555,201.908 73.0888,201.908 71.5,204.5 Z"/></g>
<g><path style="opacity:1" fill="#e5ddd7" d="M 65.5,184.5 C 66.3446,185.671 67.0113,187.005 67.5,188.5C 66.8333,189.833 66.1667,191.167 65.5,192.5C 64.1667,193.833 64.1667,195.167 65.5,196.5C 65.5674,197.959 65.2341,199.292 64.5,200.5C 62.8008,200.34 61.1341,200.506 59.5,201C 60.9909,203.022 60.6576,204.688 58.5,206C 59.7911,207.292 59.7911,208.458 58.5,209.5C 55.4041,211.157 53.7375,213.824 53.5,217.5C 52.5224,217.977 51.6891,218.643 51,219.5C 51.991,220.832 52.491,223.499 52.5,227.5C 52.31,229.959 53.31,231.626 55.5,232.5C 51.7751,232.463 50.4418,230.796 51.5,227.5C 50.0049,223.584 48.6715,219.584 47.5,215.5C 51.1358,213.793 51.1358,212.626 47.5,212C 49.2556,211.798 50.9223,211.298 52.5,210.5C 53.6477,206.715 55.3143,203.215 57.5,200C 59.4727,199.505 61.4727,199.338 63.5,199.5C 63.431,194.384 64.0976,189.384 65.5,184.5 Z"/></g>
<g><path style="opacity:1" fill="#8c7f71" d="M 120.5,193.5 C 120.642,198.374 119.976,203.041 118.5,207.5C 117.527,209.948 117.194,212.615 117.5,215.5C 116.504,215.586 115.671,215.252 115,214.5C 114.275,212.051 113.275,209.717 112,207.5C 111.667,208.167 111.333,208.833 111,209.5C 110.682,207.939 109.849,206.772 108.5,206C 109.38,204.644 109.714,203.144 109.5,201.5C 108.699,199.958 108.366,198.292 108.5,196.5C 109.583,196.539 110.583,196.873 111.5,197.5C 112.315,195.724 113.482,195.057 115,195.5C 115.14,198.043 115.806,200.377 117,202.5C 117.495,200.527 117.662,198.527 117.5,196.5C 118.29,197.609 118.79,198.942 119,200.5C 119.186,197.964 119.686,195.631 120.5,193.5 Z"/></g>
<g><path style="opacity:1" fill="#403128" d="M 150.5,205.5 C 152.527,206.861 154.194,208.527 155.5,210.5C 155.414,211.496 155.748,212.329 156.5,213C 155.584,213.278 154.918,213.778 154.5,214.5C 152.515,214.141 151.849,213.308 152.5,212C 151.471,205.626 149.471,205.126 146.5,210.5C 144.955,211.452 143.288,211.785 141.5,211.5C 141.657,212.873 141.49,214.207 141,215.5C 140.617,214.944 140.117,214.611 139.5,214.5C 140.148,212.914 140.648,211.247 141,209.5C 141.333,209.833 141.667,210.167 142,210.5C 142.256,207.443 142.756,204.443 143.5,201.5C 143.137,200.817 142.804,200.15 142.5,199.5C 143.847,198.972 145.181,198.805 146.5,199C 147.24,200.785 147.907,202.618 148.5,204.5C 148.957,205.298 149.624,205.631 150.5,205.5 Z"/></g>
<g><path style="opacity:1" fill="#3f3028" d="M 64.5,200.5 C 65.29,201.609 65.79,202.942 66,204.5C 66.9147,203.672 67.5814,202.672 68,201.5C 68.3333,201.833 68.6667,202.167 69,202.5C 71.159,200.044 71.9923,200.71 71.5,204.5C 70.5975,207.391 70.2641,210.391 70.5,213.5C 69.2616,211.786 68.595,209.786 68.5,207.5C 66.8008,207.66 65.1341,207.494 63.5,207C 64.1667,206.667 64.8333,206.333 65.5,206C 64.8448,204.513 63.8448,203.347 62.5,202.5C 62.2611,206.702 61.5944,211.035 60.5,215.5C 56.6607,216.721 56.6607,217.388 60.5,217.5C 60.2155,219.415 60.5489,221.081 61.5,222.5C 61.5,223.167 61.1667,223.5 60.5,223.5C 57.9208,223.083 55.7542,223.75 54,225.5C 53.6837,221.936 54.5171,218.603 56.5,215.5C 56.2907,214.914 55.9574,214.414 55.5,214C 56.8333,213.667 58.1667,213.333 59.5,213C 58.6634,211.989 58.33,210.822 58.5,209.5C 59.7911,208.458 59.7911,207.292 58.5,206C 60.6576,204.688 60.9909,203.022 59.5,201C 61.1341,200.506 62.8008,200.34 64.5,200.5 Z"/></g>
<g><path style="opacity:1" fill="#8e817a" d="M 139.5,187.5 C 140.167,187.5 140.833,187.5 141.5,187.5C 142.5,187.833 143.167,188.5 143.5,189.5C 142.761,189.369 142.094,189.536 141.5,190C 143.891,192.874 143.558,194.374 140.5,194.5C 140.402,196.553 141.069,198.22 142.5,199.5C 142.804,200.15 143.137,200.817 143.5,201.5C 142.756,204.443 142.256,207.443 142,210.5C 141.667,210.167 141.333,209.833 141,209.5C 140.648,211.247 140.148,212.914 139.5,214.5C 139.672,215.492 139.338,216.158 138.5,216.5C 138.566,208.2 138.566,200.2 138.5,192.5C 139.552,192.649 140.552,192.483 141.5,192C 140.733,190.53 140.067,189.03 139.5,187.5 Z"/></g>
<g><path style="opacity:1" fill="#493d35" d="M 108.5,194.5 C 108.5,195.167 108.5,195.833 108.5,196.5C 108.366,198.292 108.699,199.958 109.5,201.5C 108.596,202.209 108.263,203.209 108.5,204.5C 107.022,204.238 105.689,204.571 104.5,205.5C 107.125,206.534 107.125,207.534 104.5,208.5C 104.167,207.833 103.833,207.167 103.5,206.5C 103.799,204.396 103.466,202.396 102.5,200.5C 99.983,203.462 98.983,206.962 99.5,211C 99.5154,214.903 100.015,218.736 101,222.5C 101.671,221.748 102.504,221.414 103.5,221.5C 104.167,222.833 104.833,224.167 105.5,225.5C 105.297,227.044 104.63,228.378 103.5,229.5C 104.798,232.202 104.131,232.869 101.5,231.5C 100.661,228.16 98.8272,225.493 96,223.5C 95.8091,221.292 95.3091,219.292 94.5,217.5C 93.4878,214.743 92.4878,212.076 91.5,209.5C 91.5,207.5 91.5,205.5 91.5,203.5C 91.4551,198.878 93.7884,196.545 98.5,196.5C 98.4346,196.938 98.6012,197.272 99,197.5C 101.035,195.088 102.035,195.755 102,199.5C 104.092,197.654 105.426,195.321 106,192.5C 106.708,193.381 107.542,194.047 108.5,194.5 Z"/></g>
<g><path style="opacity:1" fill="#1c130f" d="M 70.5,213.5 C 70.8333,213.5 71.1667,213.5 71.5,213.5C 71.6653,217.182 71.4986,220.848 71,224.5C 68.3973,221.346 65.2306,220.679 61.5,222.5C 60.5489,221.081 60.2155,219.415 60.5,217.5C 56.6607,217.388 56.6607,216.721 60.5,215.5C 61.5944,211.035 62.2611,206.702 62.5,202.5C 63.8448,203.347 64.8448,204.513 65.5,206C 64.8333,206.333 64.1667,206.667 63.5,207C 65.1341,207.494 66.8008,207.66 68.5,207.5C 68.595,209.786 69.2616,211.786 70.5,213.5 Z"/></g>
<g><path style="opacity:1" fill="#a7968c" d="M 103.5,206.5 C 103.833,207.167 104.167,207.833 104.5,208.5C 104.369,209.239 104.536,209.906 105,210.5C 106.011,209.663 107.178,209.33 108.5,209.5C 108.194,212.385 108.527,215.052 109.5,217.5C 109.5,220.167 109.5,222.833 109.5,225.5C 108.778,225.918 108.278,226.584 108,227.5C 107.581,226.328 106.915,225.328 106,224.5C 105.601,224.728 105.435,225.062 105.5,225.5C 104.833,224.167 104.167,222.833 103.5,221.5C 102.574,216.334 102.574,211.334 103.5,206.5 Z"/></g>
<g><path style="opacity:1" fill="#6b584a" d="M 109.5,201.5 C 109.714,203.144 109.38,204.644 108.5,206C 109.849,206.772 110.682,207.939 111,209.5C 111.333,208.833 111.667,208.167 112,207.5C 113.275,209.717 114.275,212.051 115,214.5C 115.671,215.252 116.504,215.586 117.5,215.5C 116.631,217.717 116.298,220.05 116.5,222.5C 115.71,221.391 115.21,220.058 115,218.5C 114.667,219.167 114.333,219.833 114,220.5C 113.529,218.754 112.862,217.087 112,215.5C 111.333,220.833 110.667,220.833 110,215.5C 109.536,216.094 109.369,216.761 109.5,217.5C 108.527,215.052 108.194,212.385 108.5,209.5C 107.178,209.33 106.011,209.663 105,210.5C 104.536,209.906 104.369,209.239 104.5,208.5C 107.125,207.534 107.125,206.534 104.5,205.5C 105.689,204.571 107.022,204.238 108.5,204.5C 108.263,203.209 108.596,202.209 109.5,201.5 Z"/></g>
<g><path style="opacity:1" fill="#74655d" d="M 58.5,209.5 C 58.33,210.822 58.6634,211.989 59.5,213C 58.1667,213.333 56.8333,213.667 55.5,214C 55.9574,214.414 56.2907,214.914 56.5,215.5C 54.5171,218.603 53.6837,221.936 54,225.5C 55.7542,223.75 57.9208,223.083 60.5,223.5C 59.469,224.249 58.3024,224.915 57,225.5C 56.7979,231.031 55.2979,231.697 52.5,227.5C 52.491,223.499 51.991,220.832 51,219.5C 51.6891,218.643 52.5224,217.977 53.5,217.5C 53.7375,213.824 55.4041,211.157 58.5,209.5 Z"/></g>
<g><path style="opacity:1" fill="#ddd8d1" d="M 91.5,209.5 C 92.4878,212.076 93.4878,214.743 94.5,217.5C 94.5198,219.143 93.8532,220.476 92.5,221.5C 93.0253,222.192 93.6919,222.692 94.5,223C 90.5037,223.811 86.5037,224.144 82.5,224C 83.6537,223.086 83.487,222.253 82,221.5C 81.4092,215.502 80.9092,209.502 80.5,203.5C 81.5,203.5 82.5,203.5 83.5,203.5C 83.5,202.167 83.5,200.833 83.5,199.5C 84.5,199.5 85.5,199.5 86.5,199.5C 88.1699,202.905 89.8366,206.239 91.5,209.5 Z"/></g>
<g><path style="opacity:1" fill="#ddd5cd" d="M 126.5,172.5 C 126.5,172.833 126.5,173.167 126.5,173.5C 125.5,173.5 124.5,173.5 123.5,173.5C 123.18,176.898 123.513,180.232 124.5,183.5C 125.584,182.335 126.417,181.002 127,179.5C 128.361,181.028 129.528,182.695 130.5,184.5C 128.604,185.466 126.604,185.799 124.5,185.5C 125.253,189.913 125.586,194.246 125.5,198.5C 124.726,199.711 123.893,199.711 123,198.5C 122.08,204.96 122.58,211.293 124.5,217.5C 123.246,219.334 122.579,221.334 122.5,223.5C 126.002,223.334 129.002,224.334 131.5,226.5C 133.208,228.216 134.542,230.216 135.5,232.5C 136.736,233.246 138.07,233.579 139.5,233.5C 136.855,235.31 133.855,236.31 130.5,236.5C 129.791,235.596 128.791,235.263 127.5,235.5C 127.5,232.167 127.5,228.833 127.5,225.5C 124.212,225.073 121.212,225.74 118.5,227.5C 118.167,227.167 117.833,226.833 117.5,226.5C 118.19,221.014 118.857,215.514 119.5,210C 119.257,209.098 118.923,208.265 118.5,207.5C 119.976,203.041 120.642,198.374 120.5,193.5C 120.5,191.5 120.5,189.5 120.5,187.5C 121.167,182.319 121.833,176.985 122.5,171.5C 123.736,172.246 125.07,172.579 126.5,172.5 Z"/></g>
<g><path style="opacity:1" fill="#281916" d="M 154.5,214.5 C 155.535,216.205 155.535,217.872 154.5,219.5C 153.263,220.281 152.263,221.281 151.5,222.5C 150.311,223.429 148.978,223.762 147.5,223.5C 144.692,222.071 141.692,221.405 138.5,221.5C 138.5,219.833 138.5,218.167 138.5,216.5C 139.338,216.158 139.672,215.492 139.5,214.5C 140.117,214.611 140.617,214.944 141,215.5C 141.49,214.207 141.657,212.873 141.5,211.5C 143.288,211.785 144.955,211.452 146.5,210.5C 149.471,205.126 151.471,205.626 152.5,212C 151.849,213.308 152.515,214.141 154.5,214.5 Z"/></g>
<g><path style="opacity:1" fill="#7e6f66" d="M 103.5,206.5 C 102.574,211.334 102.574,216.334 103.5,221.5C 102.504,221.414 101.671,221.748 101,222.5C 100.015,218.736 99.5154,214.903 99.5,211C 98.983,206.962 99.983,203.462 102.5,200.5C 103.466,202.396 103.799,204.396 103.5,206.5 Z"/></g>
<g><path style="opacity:1" fill="#513e33" d="M 154.5,214.5 C 156.132,214.825 157.132,215.825 157.5,217.5C 155.985,220.37 154.319,223.037 152.5,225.5C 152.5,225.833 152.5,226.167 152.5,226.5C 150.067,226.727 148.401,225.727 147.5,223.5C 148.978,223.762 150.311,223.429 151.5,222.5C 152.263,221.281 153.263,220.281 154.5,219.5C 155.535,217.872 155.535,216.205 154.5,214.5 Z"/></g>
<g><path style="opacity:1" fill="#413d37" d="M 80.5,219.5 C 80.5,221.167 80.5,222.833 80.5,224.5C 79.6981,225.952 79.1981,227.618 79,229.5C 76.5458,218.851 75.0458,218.851 74.5,229.5C 74.7678,227.901 74.4345,226.568 73.5,225.5C 72.8505,223.565 72.5172,221.565 72.5,219.5C 73.1174,219.611 73.6174,219.944 74,220.5C 74.3818,217.114 75.3818,214.448 77,212.5C 77.6701,215.174 78.8368,217.507 80.5,219.5 Z"/></g>
<g><path style="opacity:1" fill="#9b8880" d="M 155.5,210.5 C 156.833,211.5 158.167,212.5 159.5,213.5C 159.586,214.496 159.252,215.329 158.5,216C 159.804,216.804 160.471,217.971 160.5,219.5C 159.257,221.691 158.424,224.024 158,226.5C 157.16,223.536 156.16,223.203 155,225.5C 154.667,224.833 154.333,224.167 154,223.5C 153.722,224.416 153.222,225.082 152.5,225.5C 154.319,223.037 155.985,220.37 157.5,217.5C 157.132,215.825 156.132,214.825 154.5,214.5C 154.918,213.778 155.584,213.278 156.5,213C 155.748,212.329 155.414,211.496 155.5,210.5 Z"/></g>
<g><path style="opacity:1" fill="#493e32" d="M 116.5,222.5 C 116.689,226.037 116.023,229.37 114.5,232.5C 113.127,232.657 111.793,232.49 110.5,232C 110.501,230.601 110.835,229.101 111.5,227.5C 111.145,226.478 110.478,225.811 109.5,225.5C 109.5,222.833 109.5,220.167 109.5,217.5C 109.369,216.761 109.536,216.094 110,215.5C 110.667,220.833 111.333,220.833 112,215.5C 112.862,217.087 113.529,218.754 114,220.5C 114.333,219.833 114.667,219.167 115,218.5C 115.21,220.058 115.71,221.391 116.5,222.5 Z"/></g>
<g><path style="opacity:1" fill="#c9bfb3" d="M 140.5,179.5 C 139.861,180.097 139.528,180.93 139.5,182C 139.954,183.939 140.621,185.772 141.5,187.5C 140.833,187.5 140.167,187.5 139.5,187.5C 139.48,185.449 138.813,184.782 137.5,185.5C 137.999,187.891 138.332,190.224 138.5,192.5C 138.566,200.2 138.566,208.2 138.5,216.5C 138.5,218.167 138.5,219.833 138.5,221.5C 141.692,221.405 144.692,222.071 147.5,223.5C 148.401,225.727 150.067,226.727 152.5,226.5C 151.321,228.507 151.821,228.84 154,227.5C 154.167,228 154.333,228.5 154.5,229C 153.456,230.174 152.456,231.341 151.5,232.5C 150.833,232.5 150.167,232.5 149.5,232.5C 148.527,225.507 147.194,225.174 145.5,231.5C 144.243,229.321 142.743,227.321 141,225.5C 139.108,226.13 137.441,227.13 136,228.5C 135.548,225.123 134.882,221.789 134,218.5C 133.617,217.944 133.117,217.611 132.5,217.5C 131.624,214.201 131.457,210.868 132,207.5C 132.333,209.5 132.667,211.5 133,213.5C 133.889,212.112 134.389,212.278 134.5,214C 133.062,216.366 133.562,216.866 136,215.5C 136.333,217.833 136.667,220.167 137,222.5C 137.788,215.444 137.455,208.444 136,201.5C 135.667,202.5 135.333,203.5 135,204.5C 131.034,201.366 130.534,197.699 133.5,193.5C 133.028,187.522 133.362,181.522 134.5,175.5C 132.265,175.795 130.265,175.461 128.5,174.5C 130.924,174.808 133.257,174.474 135.5,173.5C 136.077,171.45 137.41,170.45 139.5,170.5C 139.704,173.518 140.037,176.518 140.5,179.5 Z"/></g>
<g><path style="opacity:1" fill="#c5bbad" d="M 88.5,194.5 C 88.1324,198.044 89.1324,201.044 91.5,203.5C 91.5,205.5 91.5,207.5 91.5,209.5C 89.8366,206.239 88.1699,202.905 86.5,199.5C 85.5,199.5 84.5,199.5 83.5,199.5C 83.5,200.833 83.5,202.167 83.5,203.5C 82.5,203.5 81.5,203.5 80.5,203.5C 80.9092,209.502 81.4092,215.502 82,221.5C 83.487,222.253 83.6537,223.086 82.5,224C 86.5037,224.144 90.5037,223.811 94.5,223C 93.6919,222.692 93.0253,222.192 92.5,221.5C 93.8532,220.476 94.5198,219.143 94.5,217.5C 95.3091,219.292 95.8091,221.292 96,223.5C 98.8272,225.493 100.661,228.16 101.5,231.5C 100.518,230.859 99.5178,230.193 98.5,229.5C 97.7564,230.991 97.0897,232.491 96.5,234C 97.0944,234.464 97.7611,234.631 98.5,234.5C 95.8333,235.833 93.1667,235.833 90.5,234.5C 92.288,234.785 93.9547,234.452 95.5,233.5C 94.5022,230.972 93.6689,230.972 93,233.5C 91.9008,230.961 90.2342,230.295 88,231.5C 86.049,229.863 86.2157,228.363 88.5,227C 87.552,226.517 86.552,226.351 85.5,226.5C 85.5,229.167 85.5,231.833 85.5,234.5C 85.1667,234.5 84.8333,234.5 84.5,234.5C 83.6496,232.397 82.6496,230.397 81.5,228.5C 81.7678,226.901 81.4345,225.568 80.5,224.5C 80.5,222.833 80.5,221.167 80.5,219.5C 79.8248,212.524 79.3248,205.524 79,198.5C 78.5,197.5 78,196.5 77.5,195.5C 77.8258,192.342 78.8258,189.508 80.5,187C 78.9005,185.934 77.9005,184.434 77.5,182.5C 78.2497,179.955 77.9164,177.455 76.5,175C 78.4376,174.979 80.4376,175.146 82.5,175.5C 83.7948,179.38 83.7948,183.214 82.5,187C 84.5922,187.953 84.9255,189.286 83.5,191C 84.9733,191.71 85.6399,192.876 85.5,194.5C 86.5,194.5 87.5,194.5 88.5,194.5 Z"/></g>
<g><path style="opacity:1" fill="#827769" d="M 90.5,234.5 C 88.8333,234.5 87.1667,234.5 85.5,234.5C 85.5,231.833 85.5,229.167 85.5,226.5C 86.552,226.351 87.552,226.517 88.5,227C 86.2157,228.363 86.049,229.863 88,231.5C 90.2342,230.295 91.9008,230.961 93,233.5C 93.6689,230.972 94.5022,230.972 95.5,233.5C 93.9547,234.452 92.288,234.785 90.5,234.5 Z"/></g>
<g><path style="opacity:1" fill="#b7ad9b" d="M 118.5,207.5 C 118.923,208.265 119.257,209.098 119.5,210C 118.857,215.514 118.19,221.014 117.5,226.5C 117.833,226.833 118.167,227.167 118.5,227.5C 121.212,225.74 124.212,225.073 127.5,225.5C 127.5,228.833 127.5,232.167 127.5,235.5C 126.064,235.322 124.564,234.989 123,234.5C 121.699,234.639 120.866,235.305 120.5,236.5C 120.167,236.5 119.833,236.5 119.5,236.5C 119.543,232.107 119.043,231.774 118,235.5C 116.482,234.837 115.315,233.837 114.5,232.5C 116.023,229.37 116.689,226.037 116.5,222.5C 116.298,220.05 116.631,217.717 117.5,215.5C 117.194,212.615 117.527,209.948 118.5,207.5 Z"/></g>
<g><path style="opacity:1" fill="#ded8d9" d="M 159.5,213.5 C 160.693,213.97 161.36,214.97 161.5,216.5C 162.268,219.154 162.434,221.821 162,224.5C 160.249,226.49 159.249,228.823 159,231.5C 158.667,231.167 158.333,230.833 158,230.5C 156.246,232.25 154.079,232.917 151.5,232.5C 152.456,231.341 153.456,230.174 154.5,229C 154.333,228.5 154.167,228 154,227.5C 151.821,228.84 151.321,228.507 152.5,226.5C 152.5,226.167 152.5,225.833 152.5,225.5C 153.222,225.082 153.722,224.416 154,223.5C 154.333,224.167 154.667,224.833 155,225.5C 156.16,223.203 157.16,223.536 158,226.5C 158.424,224.024 159.257,221.691 160.5,219.5C 160.471,217.971 159.804,216.804 158.5,216C 159.252,215.329 159.586,214.496 159.5,213.5 Z"/></g>
<g><path style="opacity:1" fill="#191611" d="M 80.5,224.5 C 81.4345,225.568 81.7678,226.901 81.5,228.5C 80.5655,229.568 80.2322,230.901 80.5,232.5C 79.5,232.5 78.5,232.5 77.5,232.5C 76.1667,232.5 74.8333,232.5 73.5,232.5C 74.1098,231.609 74.4431,230.609 74.5,229.5C 75.0458,218.851 76.5458,218.851 79,229.5C 79.1981,227.618 79.6981,225.952 80.5,224.5 Z"/></g>
<g><path style="opacity:1" fill="#a89c8e" d="M 132.5,217.5 C 133.117,217.611 133.617,217.944 134,218.5C 134.882,221.789 135.548,225.123 136,228.5C 137.441,227.13 139.108,226.13 141,225.5C 142.743,227.321 144.243,229.321 145.5,231.5C 147.194,225.174 148.527,225.507 149.5,232.5C 146.214,233.207 142.881,233.54 139.5,233.5C 138.07,233.579 136.736,233.246 135.5,232.5C 134.542,230.216 133.208,228.216 131.5,226.5C 131.264,223.391 131.597,220.391 132.5,217.5 Z"/></g>
<g><path style="opacity:1" fill="#7b766e" d="M 73.5,225.5 C 74.4345,226.568 74.7678,227.901 74.5,229.5C 74.4431,230.609 74.1098,231.609 73.5,232.5C 71.8333,232.5 70.1667,232.5 68.5,232.5C 68.3287,229.203 68.9954,228.869 70.5,231.5C 72.5772,230.012 73.5772,228.012 73.5,225.5 Z"/></g>
<g><path style="opacity:1" fill="#72665e" d="M 109.5,225.5 C 110.478,225.811 111.145,226.478 111.5,227.5C 110.835,229.101 110.501,230.601 110.5,232C 111.793,232.49 113.127,232.657 114.5,232.5C 115.315,233.837 116.482,234.837 118,235.5C 119.043,231.774 119.543,232.107 119.5,236.5C 115.059,235.68 110.726,234.68 106.5,233.5C 103.803,233.703 101.136,234.036 98.5,234.5C 97.7611,234.631 97.0944,234.464 96.5,234C 97.0897,232.491 97.7564,230.991 98.5,229.5C 99.5178,230.193 100.518,230.859 101.5,231.5C 104.131,232.869 104.798,232.202 103.5,229.5C 104.63,228.378 105.297,227.044 105.5,225.5C 105.435,225.062 105.601,224.728 106,224.5C 106.915,225.328 107.581,226.328 108,227.5C 108.278,226.584 108.778,225.918 109.5,225.5 Z"/></g>
<g><path style="opacity:1" fill="#bbb2a8" d="M 72.5,219.5 C 72.5172,221.565 72.8505,223.565 73.5,225.5C 73.5772,228.012 72.5772,230.012 70.5,231.5C 68.9954,228.869 68.3287,229.203 68.5,232.5C 70.1667,232.5 71.8333,232.5 73.5,232.5C 74.8333,232.5 76.1667,232.5 77.5,232.5C 77.5,232.833 77.5,233.167 77.5,233.5C 70.9779,233.823 64.6446,233.49 58.5,232.5C 57.5,232.5 56.5,232.5 55.5,232.5C 53.31,231.626 52.31,229.959 52.5,227.5C 55.2979,231.697 56.7979,231.031 57,225.5C 58.3024,224.915 59.469,224.249 60.5,223.5C 61.1667,223.5 61.5,223.167 61.5,222.5C 65.2306,220.679 68.3973,221.346 71,224.5C 71.4986,220.848 71.6653,217.182 71.5,213.5C 71.1495,210.144 71.9829,207.144 74,204.5C 74.4017,205.872 74.9017,207.205 75.5,208.5C 73.7194,211.956 72.7194,215.622 72.5,219.5 Z"/></g>
<g><path style="opacity:1" fill="#463e37" d="M 58.5,232.5 C 60.8053,230.828 63.1386,230.662 65.5,232C 63.1902,232.497 60.8568,232.663 58.5,232.5 Z"/></g>
<g><path style="opacity:1" fill="#706a5e" d="M 81.5,228.5 C 82.6496,230.397 83.6496,232.397 84.5,234.5C 82.0971,234.552 79.7638,234.219 77.5,233.5C 77.5,233.167 77.5,232.833 77.5,232.5C 78.5,232.5 79.5,232.5 80.5,232.5C 80.2322,230.901 80.5655,229.568 81.5,228.5 Z"/></g>
<g><path style="opacity:1" fill="#645e56" d="M 127.5,235.5 C 128.791,235.263 129.791,235.596 130.5,236.5C 127.167,236.5 123.833,236.5 120.5,236.5C 120.866,235.305 121.699,234.639 123,234.5C 124.564,234.989 126.064,235.322 127.5,235.5 Z"/></g>
</svg>
