<?xml version="1.0" encoding="UTF-8" standalone="no"?>
<!-- Created with Inkscape (http://www.inkscape.org/) -->

<svg
   width="210mm"
   height="297mm"
   viewBox="0 0 210 297"
   version="1.1"
   id="svg1"
   xml:space="preserve"
   inkscape:version="1.3.2 (091e20ef0f, 2023-11-25)"
   sodipodi:docname="mdf.svg"
   xmlns:inkscape="http://www.inkscape.org/namespaces/inkscape"
   xmlns:sodipodi="http://sodipodi.sourceforge.net/DTD/sodipodi-0.dtd"
   xmlns:xlink="http://www.w3.org/1999/xlink"
   xmlns="http://www.w3.org/2000/svg"
   xmlns:svg="http://www.w3.org/2000/svg"><sodipodi:namedview
     id="namedview1"
     pagecolor="#ffffff"
     bordercolor="#666666"
     borderopacity="1.0"
     inkscape:showpageshadow="2"
     inkscape:pageopacity="0.0"
     inkscape:pagecheckerboard="0"
     inkscape:deskcolor="#d1d1d1"
     inkscape:document-units="mm"
     showguides="false"
     inkscape:zoom="1.0230555"
     inkscape:cx="545.42496"
     inkscape:cy="738.47411"
     inkscape:window-width="1440"
     inkscape:window-height="849"
     inkscape:window-x="1360"
     inkscape:window-y="0"
     inkscape:window-maximized="1"
     inkscape:current-layer="layer1"><sodipodi:guide
       position="-8.9607495,278.16415"
       orientation="0,-1"
       id="guide24"
       inkscape:locked="false" /><sodipodi:guide
       position="16.527097,278.27844"
       orientation="1,0"
       id="guide25"
       inkscape:locked="false" /><sodipodi:guide
       position="21.167485,193.42563"
       orientation="0,-1"
       id="guide26"
       inkscape:locked="false" /><sodipodi:guide
       position="71.548842,272.40366"
       orientation="1,0"
       id="guide27"
       inkscape:locked="false" /><sodipodi:guide
       position="35.202945,271.76361"
       orientation="0,-1"
       id="guide28"
       inkscape:locked="false" /><sodipodi:guide
       position="131.20055,252.52989"
       orientation="0,-1"
       id="guide30"
       inkscape:locked="false" /><sodipodi:guide
       position="18.87931,245.40518"
       orientation="1,0"
       id="guide31"
       inkscape:locked="false" /><sodipodi:guide
       position="114.02097,207.66682"
       orientation="0,-1"
       id="guide32"
       inkscape:locked="false" /><sodipodi:guide
       position="178.86497,256.13499"
       orientation="1,0"
       id="guide33"
       inkscape:locked="false" /><sodipodi:guide
       position="129.01651,242.41258"
       orientation="1,0"
       id="guide34"
       inkscape:locked="false" /></sodipodi:namedview><defs
     id="defs1" /><g
     inkscape:label="Capa 1"
     inkscape:groupmode="layer"
     id="layer1"><g
       id="g24"
       transform="translate(-12.700002,-8.9958336)"
       style="stroke-width:0.2;stroke-dasharray:none"><path
         id="rect20"
         style="fill:none;stroke:#000000;stroke-width:0.2;stroke-dasharray:none"
         d="m 97.354781,20.746021 v 2.314587 H 86.399894 v 28.23807 l 13.680816,13.786755 h 3.3197 l 29.26488,-24.936462 -4.9041,-5.080827 a 1.9226742,1.9226742 0 0 1 -0.56172,0.08527 1.9226742,1.9226742 0 0 1 -1.92236,-1.92288 1.9226742,1.9226742 0 0 1 1.92236,-1.922363 1.9226742,1.9226742 0 0 1 1.92288,1.922363 1.9226742,1.9226742 0 0 1 -0.0656,0.484725 l 5.03535,5.217769 10.06399,-8.575187 v -7.245553 h -2.1332 v -2.366263 h -3.69694 v 2.362646 h -0.43925 v -2.362646 h -3.69073 v 2.282548 h -28.90573 v -2.282548 h -3.0458 v 5.914367 h -1.99058 v -5.914367 z" /><circle
         style="fill:none;stroke:#000000;stroke-width:0.2;stroke-dasharray:none"
         id="path23"
         cx="91.346359"
         cy="28.080065"
         r="2.4033427" /><rect
         style="fill:none;stroke:#000000;stroke-width:0.2;stroke-dasharray:none"
         id="rect23"
         width="3.1498618"
         height="8.6807404"
         x="99.727898"
         y="48.669102" /></g><g
       id="g31"
       transform="translate(-12.700002,-8.9958336)"
       style="stroke-width:0.2;stroke-dasharray:none"><circle
         style="fill:none;stroke:#000000;stroke-width:0.2;stroke-dasharray:none"
         id="path23-2"
         cx="28.550394"
         cy="27.705658"
         r="2.4033427" /><circle
         style="fill:none;stroke:#000000;stroke-width:0.2;stroke-dasharray:none"
         id="path23-2-1"
         cx="44.125027"
         cy="94.83667"
         r="2.4033427" /><circle
         style="fill:none;stroke:#000000;stroke-width:0.2;stroke-dasharray:none"
         id="path23-2-4"
         cx="59.282593"
         cy="27.779673"
         r="2.4033427" /><rect
         style="fill:none;stroke:#000000;stroke-width:0.2;stroke-dasharray:none"
         id="rect23-9"
         width="3.1498618"
         height="8.6807404"
         x="18.936348"
         y="50.112072" /><rect
         style="fill:none;stroke:#000000;stroke-width:0.2;stroke-dasharray:none"
         id="rect23-9-56"
         width="3.1498618"
         height="8.6807404"
         x="53.038895"
         y="-48.395065"
         transform="rotate(90)" /><rect
         style="fill:none;stroke:#000000;stroke-width:0.2;stroke-dasharray:none"
         id="rect23-9-2"
         width="3.1498618"
         height="8.6807404"
         x="66.041832"
         y="50.167603" /><rect
         style="fill:none;stroke:#000000;stroke-width:0.2;stroke-dasharray:none"
         id="rect23-9-5"
         width="3.1498618"
         height="8.6807404"
         x="18.888472"
         y="86.910721" /><rect
         style="fill:none;stroke:#000000;stroke-width:0.2;stroke-dasharray:none"
         id="rect23-9-2-5"
         width="3.1498618"
         height="8.6807404"
         x="65.99395"
         y="86.966248" /><rect
         style="fill:none;stroke:#000000;stroke-width:0.2;stroke-dasharray:none"
         id="rect27"
         width="54.809956"
         height="84.766479"
         x="16.591518"
         y="18.82148"
         ry="3.0361924" /></g><g
       id="g51"
       style="stroke-width:0.2;stroke-dasharray:none"><path
         id="rect34"
         style="fill:none;stroke:#000000;stroke-width:0.2;stroke-dasharray:none"
         d="M 146.47426 33.213993 L 146.47426 35.692395 L 145.93424 35.692395 L 145.93424 33.220711 L 142.31534 33.220711 L 142.31534 35.692395 L 116.37894 35.692395 L 116.37894 54.086104 L 113.94292 54.086104 L 113.94292 57.695703 L 116.37894 57.695703 L 116.37894 58.238822 L 113.92948 58.238822 L 113.92948 61.874259 L 116.37894 61.874259 L 116.37894 80.227144 L 142.17737 80.227144 L 142.17737 82.598576 L 145.81952 82.598576 L 145.81952 80.227144 L 146.34662 80.227144 L 146.34662 82.594442 L 149.98154 82.594442 L 149.98154 80.227144 L 163.03398 80.227144 C 164.70926 80.227144 166.05808 78.878369 166.05808 77.20304 L 166.05808 38.7165 C 166.05808 37.041171 164.70926 35.692395 163.03398 35.692395 L 150.1066 35.692395 L 150.1066 33.213993 L 146.47426 33.213993 z " /><ellipse
         style="fill:none;stroke:#000000;stroke-width:0.2;stroke-dasharray:none"
         id="path1"
         cx="142.10031"
         cy="40.546192"
         rx="1.6530979"
         ry="1.6530976" /><use
         x="0"
         y="0"
         xlink:href="#path1"
         id="use1"
         transform="translate(0,34.88122)"
         style="stroke-width:0.2;stroke-dasharray:none" /><path
         id="path2"
         style="fill:none;stroke:#000000;stroke-width:0.2;stroke-dasharray:none"
         d="m 142.08435,43.622143 a 14.395243,14.395243 0 0 0 -12.15895,6.7014 h -5.89473 v 3.49591 h -3.5326 v 8.264612 h 3.5326 v 3.477307 h 5.81308 a 14.395243,14.395243 0 0 0 12.2406,6.851262 14.395243,14.395243 0 0 0 14.39499,-14.395504 14.395243,14.395243 0 0 0 -14.39499,-14.394987 z" /></g><g
       id="g6"
       transform="rotate(180,91.723574,298.22281)"
       style="stroke-width:0.2;stroke-dasharray:none"><path
         id="rect4"
         style="fill:none;stroke:#000000;stroke-width:0.2;stroke-dasharray:none"
         d="m 152.91521,327.90608 a 25.899136,25.899136 0 0 0 -13.73611,3.96617 H 73.62548 v 43.54928 h 65.05856 a 25.899136,25.899136 0 0 0 14.23117,4.28294 25.899136,25.899136 0 0 0 25.8992,-25.89919 25.899136,25.899136 0 0 0 -25.8992,-25.8992 z" /><circle
         style="fill:none;stroke:#000000;stroke-width:0.2;stroke-dasharray:none"
         id="path4"
         cx="96.341934"
         cy="353.69479"
         r="11.15308" /><rect
         style="fill:none;stroke:#000000;stroke-width:0.2;stroke-dasharray:none"
         id="rect5"
         width="6.6531677"
         height="3.0324447"
         x="77.85125"
         y="343.23801" /><use
         x="0"
         y="0"
         xlink:href="#rect5"
         id="use5"
         transform="translate(-0.01390655,17.612951)"
         style="stroke-width:0.2;stroke-dasharray:none" /><use
         x="0"
         y="0"
         xlink:href="#rect5"
         id="use5-2"
         transform="rotate(90,124.66527,390.62837)"
         style="stroke-width:0.2;stroke-dasharray:none" /><use
         x="0"
         y="0"
         xlink:href="#use5-2"
         id="use6"
         transform="translate(0,13.229169)"
         style="stroke-width:0.2;stroke-dasharray:none" /></g><g
       id="g3"
       transform="rotate(180,91.723574,298.22281)"
       style="stroke-width:0.2;stroke-dasharray:none"><rect
         style="fill:none;stroke:#000000;stroke-width:0.2;stroke-dasharray:none"
         id="use5-2-1"
         width="6.6531677"
         height="3.0324447"
         x="322.05466"
         y="-27.033499"
         transform="rotate(90)" /><use
         x="0"
         y="0"
         xlink:href="#use5-2-1"
         id="use6-2"
         transform="translate(14.825373)"
         style="stroke-width:0.2;stroke-dasharray:none" /><path
         id="rect1"
         style="fill:none;stroke:#000000;stroke-width:0.2;stroke-dasharray:none"
         d="m 59.798934,317.06385 a 4.9014559,4.9014559 0 0 0 -0.517798,0.0372 H 22.064803 v 16.69407 h 19.824113 l 7.066752,-6.9417 10.432438,-0.016 a 4.9014559,4.9014559 0 0 0 0.410828,0.0295 4.9014559,4.9014559 0 0 0 4.90151,-4.90151 4.9014559,4.9014559 0 0 0 -4.90151,-4.90151 z" /><ellipse
         style="opacity:1;fill:none;stroke:#000000;stroke-width:0.2;stroke-dasharray:none"
         id="path3"
         cx="59.578053"
         cy="322.00513"
         rx="1.6617131"
         ry="1.661713" /></g><g
       id="g13"
       transform="translate(-2.1166667)"
       style="stroke-width:0.2;stroke-dasharray:none"><path
         id="rect3"
         style="fill:none;stroke:#000000;stroke-width:0.2;stroke-dasharray:none"
         d="m 104.47063,268.05031 v 2.3828 h -4.30413 v 5.98878 c 0,2.19243 1.76496,3.95738 3.95738,3.95738 h 1.55339 l -1.8588,-1.86914 a 0.64829284,0.64829266 0 0 1 -0.15916,0.0212 0.64829284,0.64829266 0 0 1 -0.64803,-0.64854 0.64829284,0.64829266 0 0 1 0.64803,-0.64802 0.64829284,0.64829266 0 0 1 0.64854,0.64802 0.64829284,0.64829266 0 0 1 -0.0501,0.24753 l 2.23604,2.24896 h 5.58932 c 2.19242,0 3.95738,-1.76495 3.95738,-3.95738 v -5.98878 h -5.34747 v -2.3828 h -2.22313 v 5.73246 h -1.75803 v -5.73246 z" /><ellipse
         style="fill:none;stroke:#000000;stroke-width:0.2;stroke-dasharray:none"
         id="path6"
         cx="-110.88519"
         cy="-275.47739"
         rx="1.3994347"
         ry="1.3994344"
         transform="scale(-1)" /></g><g
       id="g16"
       transform="translate(-2.1166667)"
       style="stroke-width:0.2;stroke-dasharray:none"><rect
         style="fill:none;stroke:#000000;stroke-width:0.2;stroke-dasharray:none"
         id="use6-2-6"
         width="6.6531677"
         height="3.0324447"
         x="123.057"
         y="250.23419" /><path
         id="rect7"
         style="opacity:0.564045;fill:none;stroke:#000000;stroke-width:0.2;stroke-dasharray:none"
         d="m 135.94875,261.62471 5.01313,-4.95008 h 0.12351 v -1.21181 h 1.87327 v 1.21026 l 7.13755,-0.006 v -1.20406 h 1.87327 v 1.20251 l 7.0683,-0.006 v -1.19682 h 1.87327 v 1.19527 l 2.85306,-0.003 v -9.92136 l -2.85306,-0.003 v 1.19527 h -1.87327 v -1.19682 l -7.0683,-0.006 v 1.20251 h -1.87327 v -1.20406 l -7.13755,-0.006 v 1.21026 h -1.87327 v -1.21181 h -0.12351 l -4.91442,-4.85242 -6.52084,-0.012 0.0401,-2.4155 -2.05141,-0.0288 0.0172,5.91597 -1.92986,0.0115 -0.0442,-5.90959 -2.00919,-0.0156 -0.0226,2.45398 h -5.43988 v 19.7621 l 5.44065,0.0272 -0.0136,2.43271 2.08846,0.0192 0.0401,-5.87236 1.65688,10e-4 0.10755,5.88747 1.96513,0.0665 -0.007,-2.58925 z"
         sodipodi:nodetypes="ccccccccccccccccccccccccccccccccccccccccccccccccc" /></g><g
       id="g17"
       transform="translate(-2.1166667)"
       style="stroke-width:0.2;stroke-dasharray:none"><path
         id="rect9"
         style="opacity:0.564045;fill:none;stroke:#000000;stroke-width:0.2;stroke-dasharray:none"
         d="m 164.05401,216.92925 v -17.03048 h -33.90594 v 8.67905 h -2.36419 v -8.67905 h -12.58115 v 5.39635 l -2.43461,0.015 0.006,2.2487 2.37342,-0.0591 -0.0209,1.68382 -2.34817,0.0438 0.006,2.34295 2.41848,-0.0267 v 5.38566 h 20.84214 v -12.92221 h 23.00273 v 12.92221 z"
         sodipodi:nodetypes="ccccccccccccccccccccc" /><ellipse
         style="opacity:0.564045;fill:none;stroke:#000000;stroke-width:0.2;stroke-dasharray:none"
         id="path10"
         cx="-161.27333"
         cy="-210.55533"
         rx="1.3854452"
         ry="1.3854451"
         transform="scale(-1)" /><use
         x="0"
         y="0"
         xlink:href="#path10"
         id="use10"
         transform="translate(-27.516688)"
         style="stroke-width:0.2;stroke-dasharray:none" /></g><path
       id="rect10"
       style="opacity:0.564045;fill:none;stroke:#000000;stroke-width:0.2;stroke-dasharray:none"
       d="m 81.015209,198.93566 v 5.34231 h -2.210201 v 2.21589 h 2.335774 v 1.75234 h -2.335774 v 2.23449 h 2.210201 v 5.46013 h 20.044241 v -5.46013 h 2.40606 v -2.19366 h -2.50993 v -1.75183 h 2.50993 v -2.25723 h -2.40606 v -5.34231 h -8.831489 v 8.51318 h -2.395203 v -8.51318 z" /><g
       id="g15"
       transform="rotate(180,91.723574,298.22281)"
       style="stroke-width:0.2;stroke-dasharray:none"><path
         id="rect12"
         style="opacity:0.564045;fill:none;stroke:#000000;stroke-width:0.2;stroke-dasharray:none"
         d="m 122.82506,384.20652 v 2.42208 h -6.47712 v 4.21679 h 3.10678 v 2.06499 h -3.10678 v 3.71192 c 0,0.48785 0.39272,0.88057 0.88056,0.88057 h 31.08699 c 0.48785,0 0.88057,-0.39272 0.88057,-0.88057 v -3.71192 h -2.94866 v -2.06499 h 2.94866 v -4.21679 h -6.36447 v -2.42208 h -6.08438 v 2.42208 h -7.93905 v -2.42208 z" /><ellipse
         style="opacity:0.564045;fill:none;stroke:#000000;stroke-width:0.2;stroke-dasharray:none"
         id="path15"
         cx="125.76778"
         cy="391.83789"
         rx="1.6528604"
         ry="1.6528605" /><use
         x="0"
         y="0"
         xlink:href="#path15"
         id="use15"
         transform="translate(14.024203)"
         style="stroke-width:0.2;stroke-dasharray:none" /></g><g
       id="g19"
       transform="translate(-29.482431,-38.457238)"
       style="stroke-width:0.2;stroke-dasharray:none"><path
         id="path5"
         style="opacity:0.564045;fill:none;stroke:#000000;stroke-width:0.2;stroke-dasharray:none"
         d="m 215.03959,45.598767 a 19.896446,19.896446 0 0 0 -19.89646,19.89646 19.896446,19.896446 0 0 0 18.57561,19.801892 v -2.353861 h 0.32143 v 2.377116 a 19.896446,19.896446 0 0 0 0.99942,0.07131 19.896446,19.896446 0 0 0 0.709,-0.05064 v -2.397786 h 0.32194 v 2.374532 a 19.896446,19.896446 0 0 0 18.86552,-19.822563 19.896446,19.896446 0 0 0 -19.89646,-19.89646 z" /><rect
         style="opacity:0.564045;fill:none;stroke:#000000;stroke-width:0.2;stroke-dasharray:none"
         id="rect11"
         width="2.83709"
         height="4.83709"
         x="213.62112"
         y="63.076717" /><use
         x="0"
         y="0"
         xlink:href="#path5"
         id="use13"
         transform="matrix(0.075,0,0,0.075,180.97005,43.170618)"
         style="stroke-width:2.66666666;stroke-dasharray:none" /></g><g
       id="g18"
       transform="translate(-27.365763,-38.457238)"
       style="stroke-width:0.2;stroke-dasharray:none"><use
         x="0"
         y="0"
         xlink:href="#rect11"
         id="use16"
         transform="translate(0,41.804187)"
         style="stroke-width:0.2;stroke-dasharray:none" /><circle
         style="opacity:0.564045;fill:none;stroke:#000000;stroke-width:0.2;stroke-dasharray:none"
         id="use17"
         cx="215.03967"
         cy="107.29945"
         r="18.404213" /></g><use
       x="0"
       y="0"
       xlink:href="#g24"
       id="use19"
       transform="matrix(1,0,0,-1,-13.229169,104.88149)"
       style="stroke-width:0.2;stroke-dasharray:none" /><use
       x="0"
       y="0"
       xlink:href="#g24"
       id="use20"
       transform="translate(0,89.429217)"
       style="stroke-width:0.2;stroke-dasharray:none" /><use
       x="0"
       y="0"
       xlink:href="#g31"
       id="use21"
       transform="translate(0,89.429217)"
       style="stroke-width:0.2;stroke-dasharray:none" /><use
       x="0"
       y="0"
       xlink:href="#use19"
       id="use23"
       transform="translate(0,89.429217)"
       style="stroke-width:0.2;stroke-dasharray:none" /><use
       x="0"
       y="0"
       xlink:href="#g19"
       id="use41"
       transform="translate(0.5291667,84.137547)"
       style="stroke-width:0.2;stroke-dasharray:none" /><use
       x="0"
       y="0"
       xlink:href="#g19"
       id="use42"
       transform="translate(-0.09331146,218.89389)"
       style="stroke-width:0.2;stroke-dasharray:none" /><use
       x="0"
       y="0"
       xlink:href="#g18"
       id="use43"
       transform="translate(0.52916663,93.662556)"
       style="stroke-width:0.2;stroke-dasharray:none" /><use
       x="0"
       y="0"
       xlink:href="#use41"
       id="use44"
       transform="translate(-0.52916673,92.075055)"
       style="stroke-width:0.2;stroke-dasharray:none" /><use
       x="0"
       y="0"
       xlink:href="#g3"
       id="use45"
       transform="matrix(1,0,0,-1,0,503.40474)"
       style="stroke-width:0.2;stroke-dasharray:none" /><use
       x="0"
       y="0"
       xlink:href="#g51"
       id="use51"
       transform="translate(0,89.429217)"
       style="stroke-width:0.2;stroke-dasharray:none" /><g
       id="g14"
       transform="translate(-28.045845)"
       style="stroke-width:0.2;stroke-dasharray:none"><path
         id="path13"
         style="fill:none;stroke:#000000;stroke-width:0.2;stroke-dasharray:none"
         d="m 104.47063,268.05031 v 2.3828 h -4.30413 v 5.98878 c 0,2.19243 1.76496,3.95738 3.95738,3.95738 h 1.55339 l -1.8588,-1.86914 a 0.64829284,0.64829266 0 0 1 -0.15916,0.0212 0.64829284,0.64829266 0 0 1 -0.64803,-0.64854 0.64829284,0.64829266 0 0 1 0.64803,-0.64802 0.64829284,0.64829266 0 0 1 0.64854,0.64802 0.64829284,0.64829266 0 0 1 -0.0501,0.24753 l 2.23604,2.24896 h 5.58932 c 2.19242,0 3.95738,-1.76495 3.95738,-3.95738 v -5.98878 h -5.34747 v -2.3828 h -2.22313 v 5.73246 h -1.75803 v -5.73246 z" /><ellipse
         style="fill:none;stroke:#000000;stroke-width:0.2;stroke-dasharray:none"
         id="ellipse13"
         cx="-110.88519"
         cy="-275.47739"
         rx="1.3994347"
         ry="1.3994344"
         transform="scale(-1)" /></g></g></svg>
